M48
; DRILL file {KiCad (6.0.5-0)} date Wednesday, May 25, 2022 at 12:26:47 PM
; FORMAT={-:-/ absolute / inch / decimal}
; #@! TF.CreationDate,2022-05-25T12:26:47-07:00
; #@! TF.GenerationSoftware,Kicad,Pcbnew,(6.0.5-0)
; #@! TF.FileFunction,Plated,1,2,PTH
FMAT,2
INCH
; #@! TA.AperFunction,Plated,PTH,ComponentDrill
T1C0.0315
; #@! TA.AperFunction,Plated,PTH,ComponentDrill
T2C0.0394
; #@! TA.AperFunction,Plated,PTH,ComponentDrill
T3C0.0598
%
G90
G05
T1
X6.75Y-2.7
X7.11Y-2.85
X7.11Y-3.15
X7.25Y-2.7
X7.3004Y-2.9504
X7.3004Y-3.0504
X7.3004Y-3.1504
X7.3004Y-3.2504
X7.5Y-2.55
X7.5Y-2.7469
X7.6004Y-2.9504
X7.6004Y-3.0504
X7.6004Y-3.1504
X7.6004Y-3.2504
X7.8Y-2.7
X7.8Y-3.2
T2
X6.9Y-2.5
X6.9Y-3.3
X7.0Y-2.5
X7.0Y-3.3
X7.1Y-2.5
X7.1Y-3.3
T3
X6.8Y-2.9
X6.8Y-3.1
X8.15Y-2.6
X8.15Y-2.8
X8.15Y-3.0
X8.15Y-3.2
T0
M30
