%TF.GenerationSoftware,KiCad,Pcbnew,(6.0.5-0)*%
%TF.CreationDate,2022-05-25T12:26:38-07:00*%
%TF.ProjectId,pool-piano-midi,706f6f6c-2d70-4696-916e-6f2d6d696469,v0*%
%TF.SameCoordinates,Original*%
%TF.FileFunction,Copper,L1,Top*%
%TF.FilePolarity,Positive*%
%FSLAX46Y46*%
G04 Gerber Fmt 4.6, Leading zero omitted, Abs format (unit mm)*
G04 Created by KiCad (PCBNEW (6.0.5-0)) date 2022-05-25 12:26:38*
%MOMM*%
%LPD*%
G01*
G04 APERTURE LIST*
%TA.AperFunction,ComponentPad*%
%ADD10R,1.700000X1.700000*%
%TD*%
%TA.AperFunction,ComponentPad*%
%ADD11O,1.700000X1.700000*%
%TD*%
%TA.AperFunction,ComponentPad*%
%ADD12C,1.600000*%
%TD*%
%TA.AperFunction,ComponentPad*%
%ADD13O,1.600000X1.600000*%
%TD*%
%TA.AperFunction,ComponentPad*%
%ADD14R,1.600000X1.600000*%
%TD*%
%TA.AperFunction,ComponentPad*%
%ADD15R,3.000000X3.000000*%
%TD*%
%TA.AperFunction,ComponentPad*%
%ADD16C,3.000000*%
%TD*%
%TA.AperFunction,Conductor*%
%ADD17C,0.254000*%
%TD*%
G04 APERTURE END LIST*
D10*
%TO.P,REF\u002A\u002A,1*%
%TO.N,N/C*%
X175260000Y-83820000D03*
D11*
%TO.P,REF\u002A\u002A,2*%
X177800000Y-83820000D03*
%TO.P,REF\u002A\u002A,3*%
X180340000Y-83820000D03*
%TD*%
D12*
%TO.P,R1,1*%
%TO.N,Net-(D1-Pad1)*%
X184150000Y-68580000D03*
D13*
%TO.P,R1,2*%
%TO.N,Net-(J1-Pad1)*%
X171450000Y-68580000D03*
%TD*%
D14*
%TO.P,D1,1,K*%
%TO.N,Net-(D1-Pad1)*%
X180594000Y-72390000D03*
D13*
%TO.P,D1,2,A*%
%TO.N,Net-(D1-Pad2)*%
X180594000Y-80010000D03*
%TD*%
D15*
%TO.P,J2,1,Pin_1*%
%TO.N,VCC*%
X207010000Y-66040000D03*
D16*
%TO.P,J2,2,Pin_2*%
%TO.N,+3V3*%
X207010000Y-71120000D03*
%TO.P,J2,3,Pin_3*%
%TO.N,Net-(J2-Pad3)*%
X207010000Y-76200000D03*
%TO.P,J2,4,Pin_4*%
%TO.N,GND*%
X207010000Y-81280000D03*
%TD*%
D14*
%TO.P,C1,1*%
%TO.N,VCC*%
X190500000Y-64770000D03*
D12*
%TO.P,C1,2*%
%TO.N,GND*%
X190500000Y-69770000D03*
%TD*%
D15*
%TO.P,J1,1,Pin_1*%
%TO.N,Net-(J1-Pad1)*%
X172720000Y-73660000D03*
D16*
%TO.P,J1,2,Pin_2*%
%TO.N,Net-(D1-Pad2)*%
X172720000Y-78740000D03*
%TD*%
D12*
%TO.P,R2,1*%
%TO.N,+3V3*%
X198120000Y-68580000D03*
D13*
%TO.P,R2,2*%
%TO.N,Net-(J2-Pad3)*%
X198120000Y-81280000D03*
%TD*%
D10*
%TO.P,REF\u002A\u002A,1*%
%TO.N,N/C*%
X175260000Y-63500000D03*
D11*
%TO.P,REF\u002A\u002A,2*%
X177800000Y-63500000D03*
%TO.P,REF\u002A\u002A,3*%
X180340000Y-63500000D03*
%TD*%
D14*
%TO.P,U1,1,NC*%
%TO.N,unconnected-(U1-Pad1)*%
X185430000Y-74940000D03*
D13*
%TO.P,U1,2,C1*%
%TO.N,Net-(D1-Pad1)*%
X185430000Y-77480000D03*
%TO.P,U1,3,C2*%
%TO.N,Net-(D1-Pad2)*%
X185430000Y-80020000D03*
%TO.P,U1,4,NC*%
%TO.N,unconnected-(U1-Pad4)*%
X185430000Y-82560000D03*
%TO.P,U1,5,GND*%
%TO.N,GND*%
X193050000Y-82560000D03*
%TO.P,U1,6,VO2*%
%TO.N,Net-(J2-Pad3)*%
X193050000Y-80020000D03*
%TO.P,U1,7,VO1*%
%TO.N,unconnected-(U1-Pad7)*%
X193050000Y-77480000D03*
%TO.P,U1,8,VCC*%
%TO.N,VCC*%
X193050000Y-74940000D03*
%TD*%
D17*
%TO.N,VCC*%
X191770000Y-66040000D02*
X190500000Y-64770000D01*
X207010000Y-66040000D02*
X195580000Y-66040000D01*
X195580000Y-66040000D02*
X191770000Y-66040000D01*
X195580000Y-66040000D02*
X193050000Y-68570000D01*
X193050000Y-68570000D02*
X193050000Y-74940000D01*
%TO.N,GND*%
X195580000Y-83820000D02*
X204470000Y-83820000D01*
X193050000Y-82560000D02*
X194320000Y-82560000D01*
X204470000Y-83820000D02*
X207010000Y-81280000D01*
X194320000Y-82560000D02*
X195580000Y-83820000D01*
%TO.N,Net-(D1-Pad1)*%
X180340000Y-73660000D02*
X180340000Y-72644000D01*
X180594000Y-72390000D02*
X180594000Y-72136000D01*
X180594000Y-72136000D02*
X184150000Y-68580000D01*
X180340000Y-72644000D02*
X180594000Y-72390000D01*
X185430000Y-77480000D02*
X184160000Y-77480000D01*
X184160000Y-77480000D02*
X180340000Y-73660000D01*
%TO.N,Net-(D1-Pad2)*%
X185420000Y-80010000D02*
X185430000Y-80020000D01*
X172720000Y-78740000D02*
X179324000Y-78740000D01*
X180594000Y-80010000D02*
X185420000Y-80010000D01*
X179324000Y-78740000D02*
X180594000Y-80010000D01*
%TO.N,Net-(J1-Pad1)*%
X171450000Y-72390000D02*
X172720000Y-73660000D01*
X171450000Y-68580000D02*
X171450000Y-72390000D01*
%TO.N,+3V3*%
X200660000Y-71120000D02*
X198120000Y-68580000D01*
X207010000Y-71120000D02*
X200660000Y-71120000D01*
%TO.N,Net-(J2-Pad3)*%
X195580000Y-80010000D02*
X195570000Y-80020000D01*
X207010000Y-76200000D02*
X203200000Y-76200000D01*
X203200000Y-76200000D02*
X198120000Y-81280000D01*
X196850000Y-81280000D02*
X195580000Y-80010000D01*
X195570000Y-80020000D02*
X193050000Y-80020000D01*
X198120000Y-81280000D02*
X196850000Y-81280000D01*
%TD*%
%TA.AperFunction,Conductor*%
%TO.N,GND*%
G36*
X212793621Y-61488502D02*
G01*
X212840114Y-61542158D01*
X212851500Y-61594500D01*
X212851500Y-85725500D01*
X212831498Y-85793621D01*
X212777842Y-85840114D01*
X212725500Y-85851500D01*
X153034500Y-85851500D01*
X152966379Y-85831498D01*
X152919886Y-85777842D01*
X152908500Y-85725500D01*
X152908500Y-84718134D01*
X173901500Y-84718134D01*
X173908255Y-84780316D01*
X173959385Y-84916705D01*
X174046739Y-85033261D01*
X174163295Y-85120615D01*
X174299684Y-85171745D01*
X174361866Y-85178500D01*
X176158134Y-85178500D01*
X176220316Y-85171745D01*
X176356705Y-85120615D01*
X176473261Y-85033261D01*
X176560615Y-84916705D01*
X176582799Y-84857529D01*
X176604598Y-84799382D01*
X176647240Y-84742618D01*
X176713802Y-84717918D01*
X176783150Y-84733126D01*
X176817817Y-84761114D01*
X176846250Y-84793938D01*
X177018126Y-84936632D01*
X177211000Y-85049338D01*
X177419692Y-85129030D01*
X177424760Y-85130061D01*
X177424763Y-85130062D01*
X177532017Y-85151883D01*
X177638597Y-85173567D01*
X177643772Y-85173757D01*
X177643774Y-85173757D01*
X177856673Y-85181564D01*
X177856677Y-85181564D01*
X177861837Y-85181753D01*
X177866957Y-85181097D01*
X177866959Y-85181097D01*
X178078288Y-85154025D01*
X178078289Y-85154025D01*
X178083416Y-85153368D01*
X178088366Y-85151883D01*
X178292429Y-85090661D01*
X178292434Y-85090659D01*
X178297384Y-85089174D01*
X178497994Y-84990896D01*
X178679860Y-84861173D01*
X178838096Y-84703489D01*
X178968453Y-84522077D01*
X178969776Y-84523028D01*
X179016645Y-84479857D01*
X179086580Y-84467625D01*
X179152026Y-84495144D01*
X179179875Y-84526994D01*
X179239987Y-84625088D01*
X179386250Y-84793938D01*
X179558126Y-84936632D01*
X179751000Y-85049338D01*
X179959692Y-85129030D01*
X179964760Y-85130061D01*
X179964763Y-85130062D01*
X180072017Y-85151883D01*
X180178597Y-85173567D01*
X180183772Y-85173757D01*
X180183774Y-85173757D01*
X180396673Y-85181564D01*
X180396677Y-85181564D01*
X180401837Y-85181753D01*
X180406957Y-85181097D01*
X180406959Y-85181097D01*
X180618288Y-85154025D01*
X180618289Y-85154025D01*
X180623416Y-85153368D01*
X180628366Y-85151883D01*
X180832429Y-85090661D01*
X180832434Y-85090659D01*
X180837384Y-85089174D01*
X181037994Y-84990896D01*
X181219860Y-84861173D01*
X181378096Y-84703489D01*
X181508453Y-84522077D01*
X181529320Y-84479857D01*
X181605136Y-84326453D01*
X181605137Y-84326451D01*
X181607430Y-84321811D01*
X181672370Y-84108069D01*
X181701529Y-83886590D01*
X181702325Y-83854022D01*
X181703074Y-83823365D01*
X181703074Y-83823361D01*
X181703156Y-83820000D01*
X181684852Y-83597361D01*
X181630431Y-83380702D01*
X181541354Y-83175840D01*
X181436801Y-83014225D01*
X181422822Y-82992617D01*
X181422820Y-82992614D01*
X181420014Y-82988277D01*
X181269670Y-82823051D01*
X181265619Y-82819852D01*
X181265615Y-82819848D01*
X181098414Y-82687800D01*
X181098410Y-82687798D01*
X181094359Y-82684598D01*
X180898789Y-82576638D01*
X180893920Y-82574914D01*
X180893916Y-82574912D01*
X180693087Y-82503795D01*
X180693083Y-82503794D01*
X180688212Y-82502069D01*
X180683119Y-82501162D01*
X180683116Y-82501161D01*
X180473373Y-82463800D01*
X180473367Y-82463799D01*
X180468284Y-82462894D01*
X180394452Y-82461992D01*
X180250081Y-82460228D01*
X180250079Y-82460228D01*
X180244911Y-82460165D01*
X180024091Y-82493955D01*
X179811756Y-82563357D01*
X179613607Y-82666507D01*
X179609474Y-82669610D01*
X179609471Y-82669612D01*
X179494573Y-82755880D01*
X179434965Y-82800635D01*
X179417917Y-82818475D01*
X179323729Y-82917037D01*
X179280629Y-82962138D01*
X179173201Y-83119621D01*
X179118293Y-83164621D01*
X179047768Y-83172792D01*
X178984021Y-83141538D01*
X178963324Y-83117054D01*
X178882822Y-82992617D01*
X178882820Y-82992614D01*
X178880014Y-82988277D01*
X178729670Y-82823051D01*
X178725619Y-82819852D01*
X178725615Y-82819848D01*
X178558414Y-82687800D01*
X178558410Y-82687798D01*
X178554359Y-82684598D01*
X178358789Y-82576638D01*
X178353920Y-82574914D01*
X178353916Y-82574912D01*
X178153087Y-82503795D01*
X178153083Y-82503794D01*
X178148212Y-82502069D01*
X178143119Y-82501162D01*
X178143116Y-82501161D01*
X177933373Y-82463800D01*
X177933367Y-82463799D01*
X177928284Y-82462894D01*
X177854452Y-82461992D01*
X177710081Y-82460228D01*
X177710079Y-82460228D01*
X177704911Y-82460165D01*
X177484091Y-82493955D01*
X177271756Y-82563357D01*
X177073607Y-82666507D01*
X177069474Y-82669610D01*
X177069471Y-82669612D01*
X176954573Y-82755880D01*
X176894965Y-82800635D01*
X176819479Y-82879627D01*
X176814283Y-82885064D01*
X176752759Y-82920494D01*
X176681846Y-82917037D01*
X176624060Y-82875791D01*
X176605207Y-82842243D01*
X176563767Y-82731703D01*
X176560615Y-82723295D01*
X176473261Y-82606739D01*
X176356705Y-82519385D01*
X176220316Y-82468255D01*
X176158134Y-82461500D01*
X174361866Y-82461500D01*
X174299684Y-82468255D01*
X174163295Y-82519385D01*
X174046739Y-82606739D01*
X173959385Y-82723295D01*
X173908255Y-82859684D01*
X173901500Y-82921866D01*
X173901500Y-84718134D01*
X152908500Y-84718134D01*
X152908500Y-80931341D01*
X156245888Y-80931341D01*
X156245983Y-80934970D01*
X156245983Y-80934972D01*
X156246729Y-80963443D01*
X156246729Y-80963445D01*
X156254875Y-81274525D01*
X156254970Y-81278171D01*
X156255481Y-81281761D01*
X156255481Y-81281762D01*
X156256796Y-81290999D01*
X156303856Y-81621660D01*
X156391897Y-81957253D01*
X156517927Y-82280503D01*
X156519624Y-82283708D01*
X156665913Y-82560000D01*
X156680275Y-82587126D01*
X156682325Y-82590109D01*
X156682327Y-82590112D01*
X156874733Y-82870064D01*
X156874739Y-82870071D01*
X156876790Y-82873056D01*
X156879176Y-82875791D01*
X157089643Y-83117054D01*
X157104866Y-83134505D01*
X157224103Y-83243002D01*
X157317268Y-83327775D01*
X157361481Y-83368006D01*
X157643233Y-83570466D01*
X157946388Y-83739200D01*
X158266928Y-83871972D01*
X158270422Y-83872967D01*
X158270424Y-83872968D01*
X158597103Y-83966025D01*
X158597108Y-83966026D01*
X158600604Y-83967022D01*
X158797304Y-83999233D01*
X158939412Y-84022504D01*
X158939419Y-84022505D01*
X158942993Y-84023090D01*
X159116276Y-84031262D01*
X159285931Y-84039263D01*
X159285932Y-84039263D01*
X159289558Y-84039434D01*
X159298415Y-84038830D01*
X159632073Y-84016084D01*
X159632081Y-84016083D01*
X159635704Y-84015836D01*
X159639279Y-84015173D01*
X159639282Y-84015173D01*
X159973279Y-83953270D01*
X159973283Y-83953269D01*
X159976844Y-83952609D01*
X160180657Y-83889908D01*
X160304978Y-83851662D01*
X160308456Y-83850592D01*
X160626145Y-83711136D01*
X160645461Y-83699849D01*
X160922560Y-83537926D01*
X160922562Y-83537925D01*
X160925700Y-83536091D01*
X161096468Y-83407875D01*
X161200244Y-83329958D01*
X161200248Y-83329955D01*
X161203151Y-83327775D01*
X161454819Y-83088950D01*
X161677370Y-82822783D01*
X161680906Y-82817401D01*
X161828296Y-82593019D01*
X161867853Y-82532799D01*
X161971561Y-82326598D01*
X162022117Y-82226080D01*
X162022120Y-82226072D01*
X162023744Y-82222844D01*
X162024989Y-82219442D01*
X162141729Y-81900437D01*
X162141730Y-81900433D01*
X162142977Y-81897026D01*
X162143822Y-81893504D01*
X162143825Y-81893496D01*
X162223124Y-81563191D01*
X162223125Y-81563187D01*
X162223971Y-81559662D01*
X162225016Y-81551028D01*
X162265316Y-81218004D01*
X162265316Y-81217997D01*
X162265652Y-81215225D01*
X162267393Y-81159849D01*
X162271511Y-81028797D01*
X162271599Y-81026000D01*
X162267992Y-80963443D01*
X162251836Y-80683246D01*
X162251835Y-80683241D01*
X162251627Y-80679626D01*
X162223070Y-80516000D01*
X162192600Y-80341415D01*
X162192598Y-80341408D01*
X162191976Y-80337842D01*
X162173007Y-80273802D01*
X162111285Y-80065434D01*
X162093437Y-80005180D01*
X162086059Y-79987882D01*
X161958740Y-79689386D01*
X161958738Y-79689383D01*
X161957316Y-79686048D01*
X161954082Y-79680377D01*
X161787208Y-79387816D01*
X161785417Y-79384676D01*
X161780607Y-79378127D01*
X161691516Y-79256846D01*
X161580018Y-79105060D01*
X161343842Y-78850904D01*
X161189306Y-78718918D01*
X170706917Y-78718918D01*
X170722682Y-78992320D01*
X170723507Y-78996525D01*
X170723508Y-78996533D01*
X170753917Y-79151526D01*
X170775405Y-79261053D01*
X170776792Y-79265103D01*
X170776793Y-79265108D01*
X170862723Y-79516088D01*
X170864112Y-79520144D01*
X170900887Y-79593264D01*
X170964975Y-79720688D01*
X170987160Y-79764799D01*
X170989586Y-79768328D01*
X170989589Y-79768334D01*
X171084625Y-79906611D01*
X171142274Y-79990490D01*
X171145161Y-79993663D01*
X171145162Y-79993664D01*
X171194639Y-80048039D01*
X171326582Y-80193043D01*
X171329877Y-80195798D01*
X171329878Y-80195799D01*
X171385860Y-80242607D01*
X171536675Y-80368707D01*
X171540316Y-80370991D01*
X171765024Y-80511951D01*
X171765028Y-80511953D01*
X171768664Y-80514234D01*
X171836544Y-80544883D01*
X172014345Y-80625164D01*
X172014349Y-80625166D01*
X172018257Y-80626930D01*
X172022377Y-80628150D01*
X172022376Y-80628150D01*
X172276723Y-80703491D01*
X172276727Y-80703492D01*
X172280836Y-80704709D01*
X172285070Y-80705357D01*
X172285075Y-80705358D01*
X172547298Y-80745483D01*
X172547300Y-80745483D01*
X172551540Y-80746132D01*
X172690912Y-80748322D01*
X172821071Y-80750367D01*
X172821077Y-80750367D01*
X172825362Y-80750434D01*
X173097235Y-80717534D01*
X173362127Y-80648041D01*
X173366087Y-80646401D01*
X173366092Y-80646399D01*
X173503759Y-80589375D01*
X173615136Y-80543241D01*
X173851582Y-80405073D01*
X174067089Y-80236094D01*
X174070469Y-80232607D01*
X174241161Y-80056466D01*
X174257669Y-80039431D01*
X174260202Y-80035983D01*
X174260206Y-80035978D01*
X174417257Y-79822178D01*
X174419795Y-79818723D01*
X174447154Y-79768334D01*
X174548418Y-79581830D01*
X174548419Y-79581828D01*
X174550468Y-79578054D01*
X174596225Y-79456962D01*
X174639015Y-79400309D01*
X174705641Y-79375784D01*
X174714091Y-79375500D01*
X179008578Y-79375500D01*
X179076699Y-79395502D01*
X179097673Y-79412405D01*
X179284250Y-79598982D01*
X179318276Y-79661294D01*
X179316862Y-79720688D01*
X179300457Y-79781913D01*
X179280502Y-80010000D01*
X179300457Y-80238087D01*
X179301881Y-80243400D01*
X179301881Y-80243402D01*
X179353408Y-80435700D01*
X179359716Y-80459243D01*
X179362039Y-80464224D01*
X179362039Y-80464225D01*
X179454151Y-80661762D01*
X179454154Y-80661767D01*
X179456477Y-80666749D01*
X179587802Y-80854300D01*
X179749700Y-81016198D01*
X179754208Y-81019355D01*
X179754211Y-81019357D01*
X179800706Y-81051913D01*
X179937251Y-81147523D01*
X179942233Y-81149846D01*
X179942238Y-81149849D01*
X180139775Y-81241961D01*
X180144757Y-81244284D01*
X180150065Y-81245706D01*
X180150067Y-81245707D01*
X180360598Y-81302119D01*
X180360600Y-81302119D01*
X180365913Y-81303543D01*
X180594000Y-81323498D01*
X180822087Y-81303543D01*
X180827400Y-81302119D01*
X180827402Y-81302119D01*
X181037933Y-81245707D01*
X181037935Y-81245706D01*
X181043243Y-81244284D01*
X181048225Y-81241961D01*
X181245762Y-81149849D01*
X181245767Y-81149846D01*
X181250749Y-81147523D01*
X181387294Y-81051913D01*
X181433789Y-81019357D01*
X181433792Y-81019355D01*
X181438300Y-81016198D01*
X181600198Y-80854300D01*
X181708780Y-80699229D01*
X181764237Y-80654901D01*
X181811993Y-80645500D01*
X184205005Y-80645500D01*
X184273126Y-80665502D01*
X184308217Y-80699228D01*
X184333061Y-80734709D01*
X184419529Y-80858197D01*
X184423802Y-80864300D01*
X184585700Y-81026198D01*
X184590208Y-81029355D01*
X184590211Y-81029357D01*
X184630251Y-81057393D01*
X184773251Y-81157523D01*
X184778233Y-81159846D01*
X184778238Y-81159849D01*
X184812457Y-81175805D01*
X184865742Y-81222722D01*
X184885203Y-81290999D01*
X184864661Y-81358959D01*
X184812457Y-81404195D01*
X184778238Y-81420151D01*
X184778233Y-81420154D01*
X184773251Y-81422477D01*
X184762720Y-81429851D01*
X184590211Y-81550643D01*
X184590208Y-81550645D01*
X184585700Y-81553802D01*
X184423802Y-81715700D01*
X184420645Y-81720208D01*
X184420643Y-81720211D01*
X184392734Y-81760070D01*
X184292477Y-81903251D01*
X184290154Y-81908233D01*
X184290151Y-81908238D01*
X184267002Y-81957882D01*
X184195716Y-82110757D01*
X184194294Y-82116065D01*
X184194293Y-82116067D01*
X184148706Y-82286198D01*
X184136457Y-82331913D01*
X184116502Y-82560000D01*
X184136457Y-82788087D01*
X184137881Y-82793400D01*
X184137881Y-82793402D01*
X184189075Y-82984457D01*
X184195716Y-83009243D01*
X184198039Y-83014224D01*
X184198039Y-83014225D01*
X184290151Y-83211762D01*
X184290154Y-83211767D01*
X184292477Y-83216749D01*
X184321051Y-83257557D01*
X184398389Y-83368006D01*
X184423802Y-83404300D01*
X184585700Y-83566198D01*
X184590208Y-83569355D01*
X184590211Y-83569357D01*
X184591795Y-83570466D01*
X184773251Y-83697523D01*
X184778233Y-83699846D01*
X184778238Y-83699849D01*
X184974765Y-83791490D01*
X184980757Y-83794284D01*
X184986065Y-83795706D01*
X184986067Y-83795707D01*
X185196598Y-83852119D01*
X185196600Y-83852119D01*
X185201913Y-83853543D01*
X185430000Y-83873498D01*
X185658087Y-83853543D01*
X185663400Y-83852119D01*
X185663402Y-83852119D01*
X185873933Y-83795707D01*
X185873935Y-83795706D01*
X185879243Y-83794284D01*
X185885235Y-83791490D01*
X186081762Y-83699849D01*
X186081767Y-83699846D01*
X186086749Y-83697523D01*
X186268205Y-83570466D01*
X186269789Y-83569357D01*
X186269792Y-83569355D01*
X186274300Y-83566198D01*
X186436198Y-83404300D01*
X186461612Y-83368006D01*
X186538949Y-83257557D01*
X186567523Y-83216749D01*
X186569846Y-83211767D01*
X186569849Y-83211762D01*
X186661961Y-83014225D01*
X186661961Y-83014224D01*
X186664284Y-83009243D01*
X186670926Y-82984457D01*
X186713245Y-82826522D01*
X191767273Y-82826522D01*
X191814764Y-83003761D01*
X191818510Y-83014053D01*
X191910586Y-83211511D01*
X191916069Y-83221007D01*
X192041028Y-83399467D01*
X192048084Y-83407875D01*
X192202125Y-83561916D01*
X192210533Y-83568972D01*
X192388993Y-83693931D01*
X192398489Y-83699414D01*
X192595947Y-83791490D01*
X192606239Y-83795236D01*
X192778503Y-83841394D01*
X192792599Y-83841058D01*
X192796000Y-83833116D01*
X192796000Y-83827967D01*
X193304000Y-83827967D01*
X193307973Y-83841498D01*
X193316522Y-83842727D01*
X193493761Y-83795236D01*
X193504053Y-83791490D01*
X193701511Y-83699414D01*
X193711007Y-83693931D01*
X193889467Y-83568972D01*
X193897875Y-83561916D01*
X194051916Y-83407875D01*
X194058972Y-83399467D01*
X194183931Y-83221007D01*
X194189414Y-83211511D01*
X194281490Y-83014053D01*
X194285236Y-83003761D01*
X194321170Y-82869654D01*
X205785618Y-82869654D01*
X205792673Y-82879627D01*
X205823679Y-82905551D01*
X205830598Y-82910579D01*
X206055272Y-83051515D01*
X206062807Y-83055556D01*
X206304520Y-83164694D01*
X206312551Y-83167680D01*
X206566832Y-83243002D01*
X206575184Y-83244869D01*
X206837340Y-83284984D01*
X206845874Y-83285700D01*
X207111045Y-83289867D01*
X207119596Y-83289418D01*
X207382883Y-83257557D01*
X207391284Y-83255955D01*
X207647824Y-83188653D01*
X207655926Y-83185926D01*
X207900949Y-83084434D01*
X207908617Y-83080628D01*
X208137598Y-82946822D01*
X208144679Y-82942009D01*
X208224655Y-82879301D01*
X208233125Y-82867442D01*
X208226608Y-82855818D01*
X207022812Y-81652022D01*
X207008868Y-81644408D01*
X207007035Y-81644539D01*
X207000420Y-81648790D01*
X205792910Y-82856300D01*
X205785618Y-82869654D01*
X194321170Y-82869654D01*
X194331394Y-82831497D01*
X194331058Y-82817401D01*
X194323116Y-82814000D01*
X193322115Y-82814000D01*
X193306876Y-82818475D01*
X193305671Y-82819865D01*
X193304000Y-82827548D01*
X193304000Y-83827967D01*
X192796000Y-83827967D01*
X192796000Y-82832115D01*
X192791525Y-82816876D01*
X192790135Y-82815671D01*
X192782452Y-82814000D01*
X191782033Y-82814000D01*
X191768502Y-82817973D01*
X191767273Y-82826522D01*
X186713245Y-82826522D01*
X186722119Y-82793402D01*
X186722119Y-82793400D01*
X186723543Y-82788087D01*
X186743498Y-82560000D01*
X186723543Y-82331913D01*
X186711294Y-82286198D01*
X186665707Y-82116067D01*
X186665706Y-82116065D01*
X186664284Y-82110757D01*
X186592998Y-81957882D01*
X186569849Y-81908238D01*
X186569846Y-81908233D01*
X186567523Y-81903251D01*
X186467266Y-81760070D01*
X186439357Y-81720211D01*
X186439355Y-81720208D01*
X186436198Y-81715700D01*
X186274300Y-81553802D01*
X186269792Y-81550645D01*
X186269789Y-81550643D01*
X186097280Y-81429851D01*
X186086749Y-81422477D01*
X186081767Y-81420154D01*
X186081762Y-81420151D01*
X186047543Y-81404195D01*
X185994258Y-81357278D01*
X185974797Y-81289001D01*
X185995339Y-81221041D01*
X186047543Y-81175805D01*
X186081762Y-81159849D01*
X186081767Y-81159846D01*
X186086749Y-81157523D01*
X186229749Y-81057393D01*
X186269789Y-81029357D01*
X186269792Y-81029355D01*
X186274300Y-81026198D01*
X186436198Y-80864300D01*
X186440472Y-80858197D01*
X186519456Y-80745395D01*
X186567523Y-80676749D01*
X186569846Y-80671767D01*
X186569849Y-80671762D01*
X186661961Y-80474225D01*
X186661961Y-80474224D01*
X186664284Y-80469243D01*
X186668387Y-80453933D01*
X186722119Y-80253402D01*
X186722119Y-80253400D01*
X186723543Y-80248087D01*
X186743498Y-80020000D01*
X186723543Y-79791913D01*
X186722119Y-79786598D01*
X186665707Y-79576067D01*
X186665706Y-79576065D01*
X186664284Y-79570757D01*
X186651670Y-79543706D01*
X186569849Y-79368238D01*
X186569846Y-79368233D01*
X186567523Y-79363251D01*
X186436198Y-79175700D01*
X186274300Y-79013802D01*
X186269792Y-79010645D01*
X186269789Y-79010643D01*
X186191611Y-78955902D01*
X186086749Y-78882477D01*
X186081767Y-78880154D01*
X186081762Y-78880151D01*
X186047543Y-78864195D01*
X185994258Y-78817278D01*
X185974797Y-78749001D01*
X185995339Y-78681041D01*
X186047543Y-78635805D01*
X186081762Y-78619849D01*
X186081767Y-78619846D01*
X186086749Y-78617523D01*
X186191611Y-78544098D01*
X186269789Y-78489357D01*
X186269792Y-78489355D01*
X186274300Y-78486198D01*
X186436198Y-78324300D01*
X186477604Y-78265167D01*
X186531181Y-78188650D01*
X186567523Y-78136749D01*
X186569846Y-78131767D01*
X186569849Y-78131762D01*
X186661961Y-77934225D01*
X186661961Y-77934224D01*
X186664284Y-77929243D01*
X186681479Y-77865073D01*
X186722119Y-77713402D01*
X186722119Y-77713400D01*
X186723543Y-77708087D01*
X186743498Y-77480000D01*
X186723543Y-77251913D01*
X186679319Y-77086868D01*
X186665707Y-77036067D01*
X186665706Y-77036065D01*
X186664284Y-77030757D01*
X186661961Y-77025775D01*
X186569849Y-76828238D01*
X186569846Y-76828233D01*
X186567523Y-76823251D01*
X186467443Y-76680322D01*
X186439357Y-76640211D01*
X186439355Y-76640208D01*
X186436198Y-76635700D01*
X186274300Y-76473802D01*
X186269789Y-76470643D01*
X186265576Y-76467108D01*
X186266527Y-76465974D01*
X186226529Y-76415929D01*
X186219224Y-76345310D01*
X186251258Y-76281951D01*
X186312462Y-76245970D01*
X186329517Y-76242918D01*
X186340316Y-76241745D01*
X186476705Y-76190615D01*
X186593261Y-76103261D01*
X186680615Y-75986705D01*
X186731745Y-75850316D01*
X186738500Y-75788134D01*
X186738500Y-74091866D01*
X186731745Y-74029684D01*
X186680615Y-73893295D01*
X186593261Y-73776739D01*
X186476705Y-73689385D01*
X186340316Y-73638255D01*
X186278134Y-73631500D01*
X184581866Y-73631500D01*
X184519684Y-73638255D01*
X184383295Y-73689385D01*
X184266739Y-73776739D01*
X184179385Y-73893295D01*
X184128255Y-74029684D01*
X184121500Y-74091866D01*
X184121500Y-75788134D01*
X184128255Y-75850316D01*
X184179385Y-75986705D01*
X184266739Y-76103261D01*
X184383295Y-76190615D01*
X184519684Y-76241745D01*
X184530474Y-76242917D01*
X184532606Y-76243803D01*
X184535222Y-76244425D01*
X184535121Y-76244848D01*
X184596035Y-76270155D01*
X184636463Y-76328517D01*
X184638922Y-76399471D01*
X184602629Y-76460490D01*
X184593969Y-76467489D01*
X184590207Y-76470646D01*
X184585700Y-76473802D01*
X184423802Y-76635700D01*
X184420643Y-76640211D01*
X184417110Y-76644422D01*
X184415151Y-76642778D01*
X184367870Y-76680322D01*
X184297227Y-76687403D01*
X184231396Y-76652664D01*
X181472619Y-73893886D01*
X181438593Y-73831574D01*
X181443658Y-73760758D01*
X181486205Y-73703923D01*
X181517484Y-73686809D01*
X181632297Y-73643767D01*
X181640705Y-73640615D01*
X181757261Y-73553261D01*
X181844615Y-73436705D01*
X181895745Y-73300316D01*
X181902500Y-73238134D01*
X181902500Y-71778422D01*
X181922502Y-71710301D01*
X181939405Y-71689327D01*
X182772670Y-70856062D01*
X189778493Y-70856062D01*
X189787789Y-70868077D01*
X189838994Y-70903931D01*
X189848489Y-70909414D01*
X190045947Y-71001490D01*
X190056239Y-71005236D01*
X190266688Y-71061625D01*
X190277481Y-71063528D01*
X190494525Y-71082517D01*
X190505475Y-71082517D01*
X190722519Y-71063528D01*
X190733312Y-71061625D01*
X190943761Y-71005236D01*
X190954053Y-71001490D01*
X191151511Y-70909414D01*
X191161006Y-70903931D01*
X191213048Y-70867491D01*
X191221424Y-70857012D01*
X191214356Y-70843566D01*
X190512812Y-70142022D01*
X190498868Y-70134408D01*
X190497035Y-70134539D01*
X190490420Y-70138790D01*
X189784923Y-70844287D01*
X189778493Y-70856062D01*
X182772670Y-70856062D01*
X183738982Y-69889750D01*
X183801294Y-69855724D01*
X183860688Y-69857138D01*
X183916598Y-69872119D01*
X183916600Y-69872119D01*
X183921913Y-69873543D01*
X184150000Y-69893498D01*
X184378087Y-69873543D01*
X184383400Y-69872119D01*
X184383402Y-69872119D01*
X184593933Y-69815707D01*
X184593935Y-69815706D01*
X184599243Y-69814284D01*
X184604225Y-69811961D01*
X184682470Y-69775475D01*
X189187483Y-69775475D01*
X189206472Y-69992519D01*
X189208375Y-70003312D01*
X189264764Y-70213761D01*
X189268510Y-70224053D01*
X189360586Y-70421511D01*
X189366069Y-70431006D01*
X189402509Y-70483048D01*
X189412988Y-70491424D01*
X189426434Y-70484356D01*
X190127978Y-69782812D01*
X190134356Y-69771132D01*
X190864408Y-69771132D01*
X190864539Y-69772965D01*
X190868790Y-69779580D01*
X191574287Y-70485077D01*
X191586062Y-70491507D01*
X191598077Y-70482211D01*
X191633931Y-70431006D01*
X191639414Y-70421511D01*
X191731490Y-70224053D01*
X191735236Y-70213761D01*
X191791625Y-70003312D01*
X191793528Y-69992519D01*
X191812517Y-69775475D01*
X191812517Y-69764525D01*
X191793528Y-69547481D01*
X191791625Y-69536688D01*
X191735236Y-69326239D01*
X191731490Y-69315947D01*
X191639414Y-69118489D01*
X191633931Y-69108994D01*
X191597491Y-69056952D01*
X191587012Y-69048576D01*
X191573566Y-69055644D01*
X190872022Y-69757188D01*
X190864408Y-69771132D01*
X190134356Y-69771132D01*
X190135592Y-69768868D01*
X190135461Y-69767035D01*
X190131210Y-69760420D01*
X189425713Y-69054923D01*
X189413938Y-69048493D01*
X189401923Y-69057789D01*
X189366069Y-69108994D01*
X189360586Y-69118489D01*
X189268510Y-69315947D01*
X189264764Y-69326239D01*
X189208375Y-69536688D01*
X189206472Y-69547481D01*
X189187483Y-69764525D01*
X189187483Y-69775475D01*
X184682470Y-69775475D01*
X184801762Y-69719849D01*
X184801767Y-69719846D01*
X184806749Y-69717523D01*
X184924008Y-69635417D01*
X184989789Y-69589357D01*
X184989792Y-69589355D01*
X184994300Y-69586198D01*
X185156198Y-69424300D01*
X185169390Y-69405461D01*
X185284366Y-69241257D01*
X185287523Y-69236749D01*
X185289846Y-69231767D01*
X185289849Y-69231762D01*
X185381961Y-69034225D01*
X185381961Y-69034224D01*
X185384284Y-69029243D01*
X185436806Y-68833232D01*
X185442119Y-68813402D01*
X185442119Y-68813400D01*
X185443543Y-68808087D01*
X185454488Y-68682988D01*
X189778576Y-68682988D01*
X189785644Y-68696434D01*
X190487188Y-69397978D01*
X190501132Y-69405592D01*
X190502965Y-69405461D01*
X190509580Y-69401210D01*
X191215077Y-68695713D01*
X191221507Y-68683938D01*
X191212211Y-68671923D01*
X191161006Y-68636069D01*
X191151511Y-68630586D01*
X190954053Y-68538510D01*
X190943761Y-68534764D01*
X190733312Y-68478375D01*
X190722519Y-68476472D01*
X190505475Y-68457483D01*
X190494525Y-68457483D01*
X190277481Y-68476472D01*
X190266688Y-68478375D01*
X190056239Y-68534764D01*
X190045947Y-68538510D01*
X189848489Y-68630586D01*
X189838994Y-68636069D01*
X189786952Y-68672509D01*
X189778576Y-68682988D01*
X185454488Y-68682988D01*
X185463498Y-68580000D01*
X185443543Y-68351913D01*
X185428377Y-68295314D01*
X185385707Y-68136067D01*
X185385706Y-68136065D01*
X185384284Y-68130757D01*
X185358959Y-68076447D01*
X185289849Y-67928238D01*
X185289846Y-67928233D01*
X185287523Y-67923251D01*
X185156198Y-67735700D01*
X184994300Y-67573802D01*
X184989792Y-67570645D01*
X184989789Y-67570643D01*
X184911611Y-67515902D01*
X184806749Y-67442477D01*
X184801767Y-67440154D01*
X184801762Y-67440151D01*
X184604225Y-67348039D01*
X184604224Y-67348039D01*
X184599243Y-67345716D01*
X184593935Y-67344294D01*
X184593933Y-67344293D01*
X184383402Y-67287881D01*
X184383400Y-67287881D01*
X184378087Y-67286457D01*
X184150000Y-67266502D01*
X183921913Y-67286457D01*
X183916600Y-67287881D01*
X183916598Y-67287881D01*
X183706067Y-67344293D01*
X183706065Y-67344294D01*
X183700757Y-67345716D01*
X183695776Y-67348039D01*
X183695775Y-67348039D01*
X183498238Y-67440151D01*
X183498233Y-67440154D01*
X183493251Y-67442477D01*
X183388389Y-67515902D01*
X183310211Y-67570643D01*
X183310208Y-67570645D01*
X183305700Y-67573802D01*
X183143802Y-67735700D01*
X183012477Y-67923251D01*
X183010154Y-67928233D01*
X183010151Y-67928238D01*
X182941041Y-68076447D01*
X182915716Y-68130757D01*
X182914294Y-68136065D01*
X182914293Y-68136067D01*
X182871623Y-68295314D01*
X182856457Y-68351913D01*
X182836502Y-68580000D01*
X182856457Y-68808087D01*
X182857880Y-68813398D01*
X182857882Y-68813409D01*
X182872861Y-68869310D01*
X182871172Y-68940287D01*
X182840250Y-68991017D01*
X180786672Y-71044595D01*
X180724360Y-71078621D01*
X180697577Y-71081500D01*
X179745866Y-71081500D01*
X179683684Y-71088255D01*
X179547295Y-71139385D01*
X179430739Y-71226739D01*
X179343385Y-71343295D01*
X179292255Y-71479684D01*
X179285500Y-71541866D01*
X179285500Y-73238134D01*
X179292255Y-73300316D01*
X179343385Y-73436705D01*
X179430739Y-73553261D01*
X179547295Y-73640615D01*
X179555703Y-73643767D01*
X179629634Y-73671483D01*
X179686398Y-73714125D01*
X179705993Y-73760595D01*
X179707335Y-73760205D01*
X179713013Y-73779748D01*
X179717023Y-73799112D01*
X179719573Y-73819299D01*
X179722489Y-73826663D01*
X179722490Y-73826668D01*
X179735907Y-73860556D01*
X179739752Y-73871785D01*
X179743914Y-73886109D01*
X179752131Y-73914393D01*
X179756169Y-73921220D01*
X179756170Y-73921223D01*
X179762488Y-73931906D01*
X179771188Y-73949664D01*
X179775761Y-73961215D01*
X179775765Y-73961221D01*
X179778681Y-73968588D01*
X179783339Y-73974999D01*
X179783340Y-73975001D01*
X179804764Y-74004488D01*
X179811281Y-74014410D01*
X179829826Y-74045768D01*
X179829829Y-74045772D01*
X179833866Y-74052598D01*
X179848250Y-74066982D01*
X179861091Y-74082016D01*
X179866839Y-74089928D01*
X179873058Y-74098487D01*
X179879166Y-74103540D01*
X179907255Y-74126777D01*
X179916035Y-74134767D01*
X183654750Y-77873483D01*
X183662326Y-77881809D01*
X183666447Y-77888303D01*
X183672222Y-77893726D01*
X183716265Y-77935085D01*
X183719107Y-77937840D01*
X183738906Y-77957639D01*
X183742031Y-77960063D01*
X183742040Y-77960071D01*
X183742126Y-77960137D01*
X183751151Y-77967845D01*
X183783494Y-77998217D01*
X183790438Y-78002035D01*
X183790440Y-78002036D01*
X183801329Y-78008022D01*
X183817847Y-78018873D01*
X183833933Y-78031350D01*
X183874666Y-78048976D01*
X183885314Y-78054193D01*
X183924197Y-78075569D01*
X183931872Y-78077540D01*
X183931878Y-78077542D01*
X183943911Y-78080631D01*
X183962613Y-78087034D01*
X183981292Y-78095117D01*
X184010638Y-78099765D01*
X184025127Y-78102060D01*
X184036740Y-78104465D01*
X184079718Y-78115500D01*
X184100065Y-78115500D01*
X184119777Y-78117051D01*
X184139879Y-78120235D01*
X184147771Y-78119489D01*
X184184056Y-78116059D01*
X184195914Y-78115500D01*
X184212007Y-78115500D01*
X184280128Y-78135502D01*
X184315219Y-78169228D01*
X184321597Y-78178337D01*
X184382397Y-78265167D01*
X184423802Y-78324300D01*
X184585700Y-78486198D01*
X184590208Y-78489355D01*
X184590211Y-78489357D01*
X184668389Y-78544098D01*
X184773251Y-78617523D01*
X184778233Y-78619846D01*
X184778238Y-78619849D01*
X184812457Y-78635805D01*
X184865742Y-78682722D01*
X184885203Y-78750999D01*
X184864661Y-78818959D01*
X184812457Y-78864195D01*
X184778238Y-78880151D01*
X184778233Y-78880154D01*
X184773251Y-78882477D01*
X184668389Y-78955902D01*
X184590211Y-79010643D01*
X184590208Y-79010645D01*
X184585700Y-79013802D01*
X184423802Y-79175700D01*
X184420645Y-79180208D01*
X184420643Y-79180211D01*
X184355888Y-79272691D01*
X184328037Y-79312467D01*
X184322222Y-79320771D01*
X184266765Y-79365099D01*
X184219009Y-79374500D01*
X181811993Y-79374500D01*
X181743872Y-79354498D01*
X181708780Y-79320771D01*
X181702966Y-79312467D01*
X181607200Y-79175700D01*
X181603357Y-79170211D01*
X181603355Y-79170208D01*
X181600198Y-79165700D01*
X181438300Y-79003802D01*
X181433792Y-79000645D01*
X181433789Y-79000643D01*
X181265030Y-78882477D01*
X181250749Y-78872477D01*
X181245767Y-78870154D01*
X181245762Y-78870151D01*
X181048225Y-78778039D01*
X181048224Y-78778039D01*
X181043243Y-78775716D01*
X181037935Y-78774294D01*
X181037933Y-78774293D01*
X180827402Y-78717881D01*
X180827400Y-78717881D01*
X180822087Y-78716457D01*
X180594000Y-78696502D01*
X180365913Y-78716457D01*
X180360602Y-78717880D01*
X180360591Y-78717882D01*
X180304690Y-78732861D01*
X180233713Y-78731172D01*
X180182983Y-78700250D01*
X179829250Y-78346517D01*
X179821674Y-78338191D01*
X179817553Y-78331697D01*
X179767734Y-78284914D01*
X179764893Y-78282160D01*
X179745094Y-78262361D01*
X179741969Y-78259937D01*
X179741960Y-78259929D01*
X179741874Y-78259863D01*
X179732849Y-78252155D01*
X179706285Y-78227210D01*
X179700506Y-78221783D01*
X179682669Y-78211977D01*
X179666153Y-78201127D01*
X179650067Y-78188650D01*
X179609334Y-78171024D01*
X179598686Y-78165807D01*
X179587058Y-78159415D01*
X179559803Y-78144431D01*
X179552128Y-78142460D01*
X179552122Y-78142458D01*
X179540089Y-78139369D01*
X179521387Y-78132966D01*
X179502708Y-78124883D01*
X179465533Y-78118995D01*
X179458873Y-78117940D01*
X179447260Y-78115535D01*
X179404282Y-78104500D01*
X179383935Y-78104500D01*
X179364224Y-78102949D01*
X179351950Y-78101005D01*
X179344121Y-78099765D01*
X179336229Y-78100511D01*
X179299944Y-78103941D01*
X179288086Y-78104500D01*
X174714753Y-78104500D01*
X174646632Y-78084498D01*
X174600139Y-78030842D01*
X174595980Y-78020559D01*
X174569050Y-77944510D01*
X174569047Y-77944503D01*
X174567617Y-77940465D01*
X174442013Y-77697112D01*
X174432040Y-77682921D01*
X174293272Y-77485475D01*
X174284545Y-77473057D01*
X174214466Y-77397643D01*
X174101046Y-77275588D01*
X174101043Y-77275585D01*
X174098125Y-77272445D01*
X174094810Y-77269731D01*
X174094806Y-77269728D01*
X173889523Y-77101706D01*
X173886205Y-77098990D01*
X173652704Y-76955901D01*
X173648768Y-76954173D01*
X173405873Y-76847549D01*
X173405869Y-76847548D01*
X173401945Y-76845825D01*
X173138566Y-76770800D01*
X173134324Y-76770196D01*
X173134318Y-76770195D01*
X172933834Y-76741662D01*
X172867443Y-76732213D01*
X172723589Y-76731460D01*
X172597877Y-76730802D01*
X172597871Y-76730802D01*
X172593591Y-76730780D01*
X172589347Y-76731339D01*
X172589343Y-76731339D01*
X172470302Y-76747011D01*
X172322078Y-76766525D01*
X172317938Y-76767658D01*
X172317936Y-76767658D01*
X172281269Y-76777689D01*
X172057928Y-76838788D01*
X172053980Y-76840472D01*
X171809982Y-76944546D01*
X171809978Y-76944548D01*
X171806030Y-76946232D01*
X171786125Y-76958145D01*
X171574725Y-77084664D01*
X171574721Y-77084667D01*
X171571043Y-77086868D01*
X171357318Y-77258094D01*
X171168808Y-77456742D01*
X171009002Y-77679136D01*
X170880857Y-77921161D01*
X170879385Y-77925184D01*
X170879383Y-77925188D01*
X170801962Y-78136749D01*
X170786743Y-78178337D01*
X170728404Y-78445907D01*
X170728068Y-78450177D01*
X170708644Y-78696981D01*
X170706917Y-78718918D01*
X161189306Y-78718918D01*
X161080019Y-78625578D01*
X160792047Y-78432069D01*
X160483741Y-78272940D01*
X160159189Y-78150302D01*
X160155668Y-78149418D01*
X160155663Y-78149416D01*
X159974618Y-78103941D01*
X159822692Y-78065780D01*
X159800476Y-78062855D01*
X159482315Y-78020968D01*
X159482307Y-78020967D01*
X159478711Y-78020494D01*
X159334045Y-78018221D01*
X159135446Y-78015101D01*
X159135442Y-78015101D01*
X159131804Y-78015044D01*
X159128190Y-78015405D01*
X159128184Y-78015405D01*
X158884843Y-78039694D01*
X158786569Y-78049503D01*
X158577365Y-78095117D01*
X158465585Y-78119489D01*
X158447583Y-78123414D01*
X158444156Y-78124587D01*
X158444150Y-78124589D01*
X158122765Y-78234624D01*
X158119339Y-78235797D01*
X157806188Y-78385163D01*
X157512279Y-78569532D01*
X157509443Y-78571804D01*
X157509436Y-78571809D01*
X157327107Y-78717882D01*
X157241509Y-78786459D01*
X156997466Y-79033071D01*
X156995225Y-79035929D01*
X156938732Y-79107978D01*
X156783386Y-79306098D01*
X156781493Y-79309187D01*
X156781491Y-79309190D01*
X156736276Y-79382974D01*
X156602105Y-79601921D01*
X156600580Y-79605206D01*
X156600578Y-79605210D01*
X156561505Y-79689386D01*
X156456027Y-79916620D01*
X156412564Y-80048039D01*
X156349712Y-80238087D01*
X156347087Y-80246023D01*
X156346351Y-80249578D01*
X156346350Y-80249581D01*
X156299284Y-80476854D01*
X156276730Y-80585764D01*
X156263437Y-80734709D01*
X156247294Y-80915592D01*
X156245888Y-80931341D01*
X152908500Y-80931341D01*
X152908500Y-72843341D01*
X156499888Y-72843341D01*
X156499983Y-72846970D01*
X156499983Y-72846972D01*
X156500729Y-72875443D01*
X156500729Y-72875445D01*
X156507395Y-73130004D01*
X156508970Y-73190171D01*
X156557856Y-73533660D01*
X156645897Y-73869253D01*
X156771927Y-74192503D01*
X156773624Y-74195708D01*
X156907113Y-74447825D01*
X156934275Y-74499126D01*
X156936325Y-74502109D01*
X156936327Y-74502112D01*
X157128733Y-74782064D01*
X157128739Y-74782071D01*
X157130790Y-74785056D01*
X157358866Y-75046505D01*
X157361551Y-75048948D01*
X157571268Y-75239775D01*
X157615481Y-75280006D01*
X157897233Y-75482466D01*
X158200388Y-75651200D01*
X158520928Y-75783972D01*
X158524422Y-75784967D01*
X158524424Y-75784968D01*
X158851103Y-75878025D01*
X158851108Y-75878026D01*
X158854604Y-75879022D01*
X159051304Y-75911233D01*
X159193412Y-75934504D01*
X159193419Y-75934505D01*
X159196993Y-75935090D01*
X159349898Y-75942301D01*
X159539931Y-75951263D01*
X159539932Y-75951263D01*
X159543558Y-75951434D01*
X159552415Y-75950830D01*
X159886073Y-75928084D01*
X159886081Y-75928083D01*
X159889704Y-75927836D01*
X159893279Y-75927173D01*
X159893282Y-75927173D01*
X160227279Y-75865270D01*
X160227283Y-75865269D01*
X160230844Y-75864609D01*
X160562456Y-75762592D01*
X160880145Y-75623136D01*
X160896179Y-75613767D01*
X161176560Y-75449926D01*
X161176562Y-75449925D01*
X161179700Y-75448091D01*
X161243132Y-75400465D01*
X161454244Y-75241958D01*
X161454248Y-75241955D01*
X161457151Y-75239775D01*
X161708819Y-75000950D01*
X161931370Y-74734783D01*
X161934691Y-74729728D01*
X162053045Y-74549550D01*
X162121853Y-74444799D01*
X162229483Y-74230800D01*
X162276117Y-74138080D01*
X162276120Y-74138072D01*
X162277744Y-74134844D01*
X162280696Y-74126777D01*
X162395729Y-73812437D01*
X162395730Y-73812433D01*
X162396977Y-73809026D01*
X162397822Y-73805504D01*
X162397825Y-73805496D01*
X162477124Y-73475191D01*
X162477125Y-73475187D01*
X162477971Y-73471662D01*
X162482201Y-73436705D01*
X162519316Y-73130004D01*
X162519316Y-73129997D01*
X162519652Y-73127225D01*
X162520620Y-73096445D01*
X162525511Y-72940797D01*
X162525599Y-72938000D01*
X162523177Y-72896000D01*
X162505836Y-72595246D01*
X162505835Y-72595241D01*
X162505627Y-72591626D01*
X162475574Y-72419431D01*
X162446600Y-72253415D01*
X162446598Y-72253408D01*
X162445976Y-72249842D01*
X162431858Y-72202178D01*
X162390293Y-72061861D01*
X162347437Y-71917180D01*
X162331256Y-71879244D01*
X162212740Y-71601386D01*
X162212738Y-71601383D01*
X162211316Y-71598048D01*
X162181220Y-71545283D01*
X162041208Y-71299816D01*
X162039417Y-71296676D01*
X161834018Y-71017060D01*
X161823031Y-71005236D01*
X161600309Y-70765559D01*
X161597842Y-70762904D01*
X161334019Y-70537578D01*
X161046047Y-70344069D01*
X161008145Y-70324506D01*
X160813521Y-70224053D01*
X160737741Y-70184940D01*
X160413189Y-70062302D01*
X160409668Y-70061418D01*
X160409663Y-70061416D01*
X160178339Y-70003312D01*
X160076692Y-69977780D01*
X160054476Y-69974855D01*
X159736315Y-69932968D01*
X159736307Y-69932967D01*
X159732711Y-69932494D01*
X159588045Y-69930221D01*
X159389446Y-69927101D01*
X159389442Y-69927101D01*
X159385804Y-69927044D01*
X159382190Y-69927405D01*
X159382184Y-69927405D01*
X159138843Y-69951694D01*
X159040569Y-69961503D01*
X158701583Y-70035414D01*
X158698156Y-70036587D01*
X158698150Y-70036589D01*
X158412445Y-70134408D01*
X158373339Y-70147797D01*
X158060188Y-70297163D01*
X158057109Y-70299094D01*
X158057108Y-70299095D01*
X158023041Y-70320465D01*
X157766279Y-70481532D01*
X157763443Y-70483804D01*
X157763436Y-70483809D01*
X157650143Y-70574574D01*
X157495509Y-70698459D01*
X157492958Y-70701037D01*
X157286752Y-70909414D01*
X157251466Y-70945071D01*
X157249225Y-70947929D01*
X157079313Y-71164627D01*
X157037386Y-71218098D01*
X157035493Y-71221187D01*
X157035491Y-71221190D01*
X156989233Y-71296676D01*
X156856105Y-71513921D01*
X156854580Y-71517206D01*
X156854578Y-71517210D01*
X156752854Y-71736357D01*
X156710027Y-71828620D01*
X156601087Y-72158023D01*
X156600351Y-72161578D01*
X156600350Y-72161581D01*
X156531465Y-72494214D01*
X156530730Y-72497764D01*
X156499888Y-72843341D01*
X152908500Y-72843341D01*
X152908500Y-68580000D01*
X170136502Y-68580000D01*
X170156457Y-68808087D01*
X170157881Y-68813400D01*
X170157881Y-68813402D01*
X170163195Y-68833232D01*
X170215716Y-69029243D01*
X170218039Y-69034224D01*
X170218039Y-69034225D01*
X170310151Y-69231762D01*
X170310154Y-69231767D01*
X170312477Y-69236749D01*
X170315634Y-69241257D01*
X170430611Y-69405461D01*
X170443802Y-69424300D01*
X170605700Y-69586198D01*
X170610208Y-69589355D01*
X170610211Y-69589357D01*
X170760771Y-69694780D01*
X170805099Y-69750237D01*
X170814500Y-69797993D01*
X170814500Y-71811123D01*
X170794498Y-71879244D01*
X170789329Y-71886684D01*
X170769385Y-71913295D01*
X170718255Y-72049684D01*
X170711500Y-72111866D01*
X170711500Y-75208134D01*
X170718255Y-75270316D01*
X170769385Y-75406705D01*
X170856739Y-75523261D01*
X170973295Y-75610615D01*
X171109684Y-75661745D01*
X171171866Y-75668500D01*
X174268134Y-75668500D01*
X174330316Y-75661745D01*
X174466705Y-75610615D01*
X174583261Y-75523261D01*
X174670615Y-75406705D01*
X174721745Y-75270316D01*
X174728500Y-75208134D01*
X174728500Y-72111866D01*
X174721745Y-72049684D01*
X174670615Y-71913295D01*
X174583261Y-71796739D01*
X174466705Y-71709385D01*
X174330316Y-71658255D01*
X174268134Y-71651500D01*
X172211500Y-71651500D01*
X172143379Y-71631498D01*
X172096886Y-71577842D01*
X172085500Y-71525500D01*
X172085500Y-69797993D01*
X172105502Y-69729872D01*
X172139229Y-69694780D01*
X172289789Y-69589357D01*
X172289792Y-69589355D01*
X172294300Y-69586198D01*
X172456198Y-69424300D01*
X172469390Y-69405461D01*
X172584366Y-69241257D01*
X172587523Y-69236749D01*
X172589846Y-69231767D01*
X172589849Y-69231762D01*
X172681961Y-69034225D01*
X172681961Y-69034224D01*
X172684284Y-69029243D01*
X172736806Y-68833232D01*
X172742119Y-68813402D01*
X172742119Y-68813400D01*
X172743543Y-68808087D01*
X172763498Y-68580000D01*
X172743543Y-68351913D01*
X172728377Y-68295314D01*
X172685707Y-68136067D01*
X172685706Y-68136065D01*
X172684284Y-68130757D01*
X172658959Y-68076447D01*
X172589849Y-67928238D01*
X172589846Y-67928233D01*
X172587523Y-67923251D01*
X172456198Y-67735700D01*
X172294300Y-67573802D01*
X172289792Y-67570645D01*
X172289789Y-67570643D01*
X172211611Y-67515902D01*
X172106749Y-67442477D01*
X172101767Y-67440154D01*
X172101762Y-67440151D01*
X171904225Y-67348039D01*
X171904224Y-67348039D01*
X171899243Y-67345716D01*
X171893935Y-67344294D01*
X171893933Y-67344293D01*
X171683402Y-67287881D01*
X171683400Y-67287881D01*
X171678087Y-67286457D01*
X171450000Y-67266502D01*
X171221913Y-67286457D01*
X171216600Y-67287881D01*
X171216598Y-67287881D01*
X171006067Y-67344293D01*
X171006065Y-67344294D01*
X171000757Y-67345716D01*
X170995776Y-67348039D01*
X170995775Y-67348039D01*
X170798238Y-67440151D01*
X170798233Y-67440154D01*
X170793251Y-67442477D01*
X170688389Y-67515902D01*
X170610211Y-67570643D01*
X170610208Y-67570645D01*
X170605700Y-67573802D01*
X170443802Y-67735700D01*
X170312477Y-67923251D01*
X170310154Y-67928233D01*
X170310151Y-67928238D01*
X170241041Y-68076447D01*
X170215716Y-68130757D01*
X170214294Y-68136065D01*
X170214293Y-68136067D01*
X170171623Y-68295314D01*
X170156457Y-68351913D01*
X170136502Y-68580000D01*
X152908500Y-68580000D01*
X152908500Y-65618134D01*
X189191500Y-65618134D01*
X189198255Y-65680316D01*
X189249385Y-65816705D01*
X189336739Y-65933261D01*
X189453295Y-66020615D01*
X189589684Y-66071745D01*
X189651866Y-66078500D01*
X190857578Y-66078500D01*
X190925699Y-66098502D01*
X190946673Y-66115405D01*
X191264745Y-66433477D01*
X191272322Y-66441803D01*
X191276447Y-66448303D01*
X191282225Y-66453729D01*
X191282226Y-66453730D01*
X191326281Y-66495100D01*
X191329123Y-66497855D01*
X191348906Y-66517638D01*
X191352114Y-66520126D01*
X191361143Y-66527837D01*
X191393494Y-66558217D01*
X191400443Y-66562037D01*
X191411329Y-66568022D01*
X191427853Y-66578876D01*
X191443933Y-66591349D01*
X191451210Y-66594498D01*
X191484650Y-66608969D01*
X191495311Y-66614192D01*
X191527247Y-66631749D01*
X191527252Y-66631751D01*
X191534197Y-66635569D01*
X191541871Y-66637539D01*
X191541878Y-66637542D01*
X191553913Y-66640632D01*
X191572618Y-66647036D01*
X191584013Y-66651967D01*
X191591292Y-66655117D01*
X191618342Y-66659401D01*
X191635127Y-66662060D01*
X191646740Y-66664465D01*
X191689718Y-66675500D01*
X191710065Y-66675500D01*
X191729777Y-66677051D01*
X191749879Y-66680235D01*
X191757771Y-66679489D01*
X191794056Y-66676059D01*
X191805914Y-66675500D01*
X193741577Y-66675500D01*
X193809698Y-66695502D01*
X193856191Y-66749158D01*
X193866295Y-66819432D01*
X193836801Y-66884012D01*
X193830672Y-66890595D01*
X192656517Y-68064750D01*
X192648191Y-68072326D01*
X192641697Y-68076447D01*
X192636274Y-68082222D01*
X192594915Y-68126265D01*
X192592160Y-68129107D01*
X192572361Y-68148906D01*
X192569937Y-68152031D01*
X192569929Y-68152040D01*
X192569863Y-68152126D01*
X192562155Y-68161151D01*
X192531783Y-68193494D01*
X192527965Y-68200438D01*
X192527964Y-68200440D01*
X192521978Y-68211329D01*
X192511127Y-68227847D01*
X192498650Y-68243933D01*
X192481024Y-68284666D01*
X192475807Y-68295314D01*
X192454431Y-68334197D01*
X192452460Y-68341872D01*
X192452458Y-68341878D01*
X192449369Y-68353911D01*
X192442966Y-68372613D01*
X192434883Y-68391292D01*
X192433644Y-68399117D01*
X192427940Y-68435127D01*
X192425535Y-68446740D01*
X192414500Y-68489718D01*
X192414500Y-68510065D01*
X192412949Y-68529776D01*
X192409765Y-68549879D01*
X192410511Y-68557771D01*
X192413941Y-68594056D01*
X192414500Y-68605914D01*
X192414500Y-73722007D01*
X192394498Y-73790128D01*
X192360772Y-73825219D01*
X192310306Y-73860556D01*
X192210211Y-73930643D01*
X192210208Y-73930645D01*
X192205700Y-73933802D01*
X192043802Y-74095700D01*
X192040645Y-74100208D01*
X192040643Y-74100211D01*
X192019392Y-74130561D01*
X191912477Y-74283251D01*
X191910154Y-74288233D01*
X191910151Y-74288238D01*
X191849575Y-74418145D01*
X191815716Y-74490757D01*
X191814294Y-74496065D01*
X191814293Y-74496067D01*
X191800681Y-74546868D01*
X191756457Y-74711913D01*
X191736502Y-74940000D01*
X191756457Y-75168087D01*
X191757881Y-75173400D01*
X191757881Y-75173402D01*
X191767188Y-75208134D01*
X191815716Y-75389243D01*
X191818039Y-75394224D01*
X191818039Y-75394225D01*
X191910151Y-75591762D01*
X191910154Y-75591767D01*
X191912477Y-75596749D01*
X191962548Y-75668257D01*
X192038015Y-75776035D01*
X192043802Y-75784300D01*
X192205700Y-75946198D01*
X192210208Y-75949355D01*
X192210211Y-75949357D01*
X192251542Y-75978297D01*
X192393251Y-76077523D01*
X192398233Y-76079846D01*
X192398238Y-76079849D01*
X192432457Y-76095805D01*
X192485742Y-76142722D01*
X192505203Y-76210999D01*
X192484661Y-76278959D01*
X192432457Y-76324195D01*
X192398238Y-76340151D01*
X192398233Y-76340154D01*
X192393251Y-76342477D01*
X192288389Y-76415902D01*
X192210211Y-76470643D01*
X192210208Y-76470645D01*
X192205700Y-76473802D01*
X192043802Y-76635700D01*
X192040645Y-76640208D01*
X192040643Y-76640211D01*
X192012557Y-76680322D01*
X191912477Y-76823251D01*
X191910154Y-76828233D01*
X191910151Y-76828238D01*
X191818039Y-77025775D01*
X191815716Y-77030757D01*
X191814294Y-77036065D01*
X191814293Y-77036067D01*
X191800681Y-77086868D01*
X191756457Y-77251913D01*
X191736502Y-77480000D01*
X191756457Y-77708087D01*
X191757881Y-77713400D01*
X191757881Y-77713402D01*
X191798522Y-77865073D01*
X191815716Y-77929243D01*
X191818039Y-77934224D01*
X191818039Y-77934225D01*
X191910151Y-78131762D01*
X191910154Y-78131767D01*
X191912477Y-78136749D01*
X191948819Y-78188650D01*
X192002397Y-78265167D01*
X192043802Y-78324300D01*
X192205700Y-78486198D01*
X192210208Y-78489355D01*
X192210211Y-78489357D01*
X192288389Y-78544098D01*
X192393251Y-78617523D01*
X192398233Y-78619846D01*
X192398238Y-78619849D01*
X192432457Y-78635805D01*
X192485742Y-78682722D01*
X192505203Y-78750999D01*
X192484661Y-78818959D01*
X192432457Y-78864195D01*
X192398238Y-78880151D01*
X192398233Y-78880154D01*
X192393251Y-78882477D01*
X192288389Y-78955902D01*
X192210211Y-79010643D01*
X192210208Y-79010645D01*
X192205700Y-79013802D01*
X192043802Y-79175700D01*
X191912477Y-79363251D01*
X191910154Y-79368233D01*
X191910151Y-79368238D01*
X191828330Y-79543706D01*
X191815716Y-79570757D01*
X191814294Y-79576065D01*
X191814293Y-79576067D01*
X191757881Y-79786598D01*
X191756457Y-79791913D01*
X191736502Y-80020000D01*
X191756457Y-80248087D01*
X191757881Y-80253400D01*
X191757881Y-80253402D01*
X191811614Y-80453933D01*
X191815716Y-80469243D01*
X191818039Y-80474224D01*
X191818039Y-80474225D01*
X191910151Y-80671762D01*
X191910154Y-80671767D01*
X191912477Y-80676749D01*
X191960544Y-80745395D01*
X192039529Y-80858197D01*
X192043802Y-80864300D01*
X192205700Y-81026198D01*
X192210208Y-81029355D01*
X192210211Y-81029357D01*
X192250251Y-81057393D01*
X192393251Y-81157523D01*
X192398233Y-81159846D01*
X192398238Y-81159849D01*
X192433049Y-81176081D01*
X192486334Y-81222998D01*
X192505795Y-81291275D01*
X192485253Y-81359235D01*
X192433049Y-81404471D01*
X192398489Y-81420586D01*
X192388993Y-81426069D01*
X192210533Y-81551028D01*
X192202125Y-81558084D01*
X192048084Y-81712125D01*
X192041028Y-81720533D01*
X191916069Y-81898993D01*
X191910586Y-81908489D01*
X191818510Y-82105947D01*
X191814764Y-82116239D01*
X191768606Y-82288503D01*
X191768942Y-82302599D01*
X191776884Y-82306000D01*
X194317967Y-82306000D01*
X194331498Y-82302027D01*
X194332727Y-82293478D01*
X194285236Y-82116239D01*
X194281490Y-82105947D01*
X194189414Y-81908489D01*
X194183931Y-81898993D01*
X194058972Y-81720533D01*
X194051916Y-81712125D01*
X193897875Y-81558084D01*
X193889467Y-81551028D01*
X193711007Y-81426069D01*
X193701511Y-81420586D01*
X193666951Y-81404471D01*
X193613666Y-81357554D01*
X193594205Y-81289277D01*
X193614747Y-81221317D01*
X193666951Y-81176081D01*
X193701762Y-81159849D01*
X193701767Y-81159846D01*
X193706749Y-81157523D01*
X193849749Y-81057393D01*
X193889789Y-81029357D01*
X193889792Y-81029355D01*
X193894300Y-81026198D01*
X194056198Y-80864300D01*
X194060472Y-80858197D01*
X194155369Y-80722670D01*
X194164780Y-80709229D01*
X194220237Y-80664901D01*
X194267993Y-80655500D01*
X195274578Y-80655500D01*
X195342699Y-80675502D01*
X195363673Y-80692405D01*
X196344745Y-81673477D01*
X196352322Y-81681803D01*
X196356447Y-81688303D01*
X196362225Y-81693729D01*
X196362226Y-81693730D01*
X196406281Y-81735100D01*
X196409123Y-81737855D01*
X196428906Y-81757638D01*
X196432114Y-81760126D01*
X196441143Y-81767837D01*
X196473494Y-81798217D01*
X196480443Y-81802037D01*
X196491329Y-81808022D01*
X196507853Y-81818876D01*
X196523933Y-81831349D01*
X196531210Y-81834498D01*
X196564650Y-81848969D01*
X196575311Y-81854192D01*
X196607247Y-81871749D01*
X196607252Y-81871751D01*
X196614197Y-81875569D01*
X196621871Y-81877539D01*
X196621878Y-81877542D01*
X196633913Y-81880632D01*
X196652618Y-81887036D01*
X196664013Y-81891967D01*
X196671292Y-81895117D01*
X196695764Y-81898993D01*
X196715127Y-81902060D01*
X196726740Y-81904465D01*
X196769718Y-81915500D01*
X196790065Y-81915500D01*
X196809777Y-81917051D01*
X196829879Y-81920235D01*
X196837771Y-81919489D01*
X196874056Y-81916059D01*
X196885914Y-81915500D01*
X196902007Y-81915500D01*
X196970128Y-81935502D01*
X197005220Y-81969229D01*
X197108158Y-82116239D01*
X197113802Y-82124300D01*
X197275700Y-82286198D01*
X197280208Y-82289355D01*
X197280211Y-82289357D01*
X197348814Y-82337393D01*
X197463251Y-82417523D01*
X197468233Y-82419846D01*
X197468238Y-82419849D01*
X197665775Y-82511961D01*
X197670757Y-82514284D01*
X197676065Y-82515706D01*
X197676067Y-82515707D01*
X197886598Y-82572119D01*
X197886600Y-82572119D01*
X197891913Y-82573543D01*
X198120000Y-82593498D01*
X198348087Y-82573543D01*
X198353400Y-82572119D01*
X198353402Y-82572119D01*
X198563933Y-82515707D01*
X198563935Y-82515706D01*
X198569243Y-82514284D01*
X198574225Y-82511961D01*
X198771762Y-82419849D01*
X198771767Y-82419846D01*
X198776749Y-82417523D01*
X198891186Y-82337393D01*
X198959789Y-82289357D01*
X198959792Y-82289355D01*
X198964300Y-82286198D01*
X199126198Y-82124300D01*
X199131843Y-82116239D01*
X199254366Y-81941257D01*
X199257523Y-81936749D01*
X199259846Y-81931767D01*
X199259849Y-81931762D01*
X199351961Y-81734225D01*
X199351961Y-81734224D01*
X199354284Y-81729243D01*
X199374976Y-81652022D01*
X199412119Y-81513402D01*
X199412119Y-81513400D01*
X199413543Y-81508087D01*
X199433498Y-81280000D01*
X199432029Y-81263204D01*
X204997665Y-81263204D01*
X205012932Y-81527969D01*
X205014005Y-81536470D01*
X205065065Y-81796722D01*
X205067276Y-81804974D01*
X205153184Y-82055894D01*
X205156499Y-82063779D01*
X205275664Y-82300713D01*
X205280020Y-82308079D01*
X205409347Y-82496250D01*
X205419601Y-82504594D01*
X205433342Y-82497448D01*
X206637978Y-81292812D01*
X206644356Y-81281132D01*
X207374408Y-81281132D01*
X207374539Y-81282965D01*
X207378790Y-81289580D01*
X208585730Y-82496520D01*
X208597939Y-82503187D01*
X208609439Y-82494497D01*
X208706831Y-82361913D01*
X208711418Y-82354685D01*
X208837962Y-82121621D01*
X208841530Y-82113827D01*
X208935271Y-81865750D01*
X208937748Y-81857544D01*
X208996954Y-81599038D01*
X208998294Y-81590577D01*
X209022031Y-81324616D01*
X209022277Y-81319677D01*
X209022666Y-81282485D01*
X209022523Y-81277519D01*
X209004362Y-81011123D01*
X209003201Y-81002649D01*
X208949419Y-80742944D01*
X208947120Y-80734709D01*
X208858588Y-80484705D01*
X208855191Y-80476854D01*
X208733550Y-80241178D01*
X208729122Y-80233866D01*
X208610031Y-80064417D01*
X208599509Y-80056037D01*
X208586121Y-80063089D01*
X207382022Y-81267188D01*
X207374408Y-81281132D01*
X206644356Y-81281132D01*
X206645592Y-81278868D01*
X206645461Y-81277035D01*
X206641210Y-81270420D01*
X205433814Y-80063024D01*
X205421804Y-80056466D01*
X205410064Y-80065434D01*
X205301935Y-80215911D01*
X205297418Y-80223196D01*
X205173325Y-80457567D01*
X205169839Y-80465395D01*
X205078700Y-80714446D01*
X205076311Y-80722670D01*
X205019812Y-80981795D01*
X205018563Y-80990250D01*
X204997754Y-81254653D01*
X204997665Y-81263204D01*
X199432029Y-81263204D01*
X199413543Y-81051913D01*
X199406600Y-81026000D01*
X199397138Y-80990688D01*
X199398828Y-80919711D01*
X199429750Y-80868982D01*
X200606233Y-79692500D01*
X205786584Y-79692500D01*
X205792980Y-79703770D01*
X206997188Y-80907978D01*
X207011132Y-80915592D01*
X207012965Y-80915461D01*
X207019580Y-80911210D01*
X208226604Y-79704186D01*
X208233795Y-79691017D01*
X208226473Y-79680780D01*
X208179233Y-79642115D01*
X208172261Y-79637160D01*
X207946122Y-79498582D01*
X207938552Y-79494624D01*
X207695704Y-79388022D01*
X207687644Y-79385120D01*
X207432592Y-79312467D01*
X207424214Y-79310685D01*
X207161656Y-79273318D01*
X207153111Y-79272691D01*
X206887908Y-79271302D01*
X206879374Y-79271839D01*
X206616433Y-79306456D01*
X206608035Y-79308149D01*
X206352238Y-79378127D01*
X206344143Y-79380946D01*
X206100199Y-79484997D01*
X206092577Y-79488881D01*
X205865013Y-79625075D01*
X205857981Y-79629962D01*
X205795053Y-79680377D01*
X205786584Y-79692500D01*
X200606233Y-79692500D01*
X201423099Y-78875634D01*
X203426328Y-76872405D01*
X203488640Y-76838379D01*
X203515423Y-76835500D01*
X205014548Y-76835500D01*
X205082669Y-76855502D01*
X205129162Y-76909158D01*
X205133754Y-76920683D01*
X205154112Y-76980144D01*
X205277160Y-77224799D01*
X205279586Y-77228328D01*
X205279589Y-77228334D01*
X205429843Y-77446953D01*
X205432274Y-77450490D01*
X205435161Y-77453663D01*
X205435162Y-77453664D01*
X205459126Y-77480000D01*
X205616582Y-77653043D01*
X205826675Y-77828707D01*
X205830316Y-77830991D01*
X206055024Y-77971951D01*
X206055028Y-77971953D01*
X206058664Y-77974234D01*
X206157539Y-78018878D01*
X206304345Y-78085164D01*
X206304349Y-78085166D01*
X206308257Y-78086930D01*
X206354106Y-78100511D01*
X206566723Y-78163491D01*
X206566727Y-78163492D01*
X206570836Y-78164709D01*
X206575070Y-78165357D01*
X206575075Y-78165358D01*
X206837298Y-78205483D01*
X206837300Y-78205483D01*
X206841540Y-78206132D01*
X206980912Y-78208322D01*
X207111071Y-78210367D01*
X207111077Y-78210367D01*
X207115362Y-78210434D01*
X207387235Y-78177534D01*
X207652127Y-78108041D01*
X207656087Y-78106401D01*
X207656092Y-78106399D01*
X207862339Y-78020968D01*
X207905136Y-78003241D01*
X208141582Y-77865073D01*
X208357089Y-77696094D01*
X208373523Y-77679136D01*
X208544686Y-77502509D01*
X208547669Y-77499431D01*
X208550202Y-77495983D01*
X208550206Y-77495978D01*
X208707257Y-77282178D01*
X208709795Y-77278723D01*
X208737154Y-77228334D01*
X208838418Y-77041830D01*
X208838419Y-77041828D01*
X208840468Y-77038054D01*
X208903061Y-76872405D01*
X208935751Y-76785895D01*
X208935752Y-76785891D01*
X208937269Y-76781877D01*
X208998407Y-76514933D01*
X209002642Y-76467489D01*
X209022531Y-76244627D01*
X209022531Y-76244625D01*
X209022751Y-76242161D01*
X209023193Y-76200000D01*
X209014844Y-76077523D01*
X209004859Y-75931055D01*
X209004858Y-75931049D01*
X209004567Y-75926778D01*
X208949032Y-75658612D01*
X208857617Y-75400465D01*
X208732013Y-75157112D01*
X208722040Y-75142921D01*
X208583272Y-74945475D01*
X208574545Y-74933057D01*
X208504466Y-74857643D01*
X208391046Y-74735588D01*
X208391043Y-74735585D01*
X208388125Y-74732445D01*
X208384810Y-74729731D01*
X208384806Y-74729728D01*
X208179523Y-74561706D01*
X208176205Y-74558990D01*
X207942704Y-74415901D01*
X207938768Y-74414173D01*
X207695873Y-74307549D01*
X207695869Y-74307548D01*
X207691945Y-74305825D01*
X207428566Y-74230800D01*
X207424324Y-74230196D01*
X207424318Y-74230195D01*
X207223834Y-74201662D01*
X207157443Y-74192213D01*
X207013589Y-74191460D01*
X206887877Y-74190802D01*
X206887871Y-74190802D01*
X206883591Y-74190780D01*
X206879347Y-74191339D01*
X206879343Y-74191339D01*
X206760302Y-74207011D01*
X206612078Y-74226525D01*
X206607938Y-74227658D01*
X206607936Y-74227658D01*
X206535008Y-74247609D01*
X206347928Y-74298788D01*
X206343980Y-74300472D01*
X206099982Y-74404546D01*
X206099978Y-74404548D01*
X206096030Y-74406232D01*
X206076125Y-74418145D01*
X205864725Y-74544664D01*
X205864721Y-74544667D01*
X205861043Y-74546868D01*
X205647318Y-74718094D01*
X205458808Y-74916742D01*
X205299002Y-75139136D01*
X205296998Y-75142921D01*
X205223293Y-75282127D01*
X205170857Y-75381161D01*
X205169385Y-75385184D01*
X205169383Y-75385188D01*
X205134028Y-75481801D01*
X205091834Y-75538899D01*
X205025468Y-75564121D01*
X205015702Y-75564500D01*
X203279032Y-75564500D01*
X203267793Y-75563970D01*
X203260281Y-75562291D01*
X203252356Y-75562540D01*
X203252355Y-75562540D01*
X203191970Y-75564438D01*
X203188012Y-75564500D01*
X203160017Y-75564500D01*
X203156083Y-75564997D01*
X203156081Y-75564997D01*
X203155994Y-75565008D01*
X203144160Y-75565940D01*
X203099795Y-75567335D01*
X203092182Y-75569547D01*
X203092181Y-75569547D01*
X203080252Y-75573013D01*
X203060888Y-75577023D01*
X203048560Y-75578580D01*
X203048558Y-75578580D01*
X203040701Y-75579573D01*
X203033337Y-75582489D01*
X203033332Y-75582490D01*
X202999444Y-75595907D01*
X202988215Y-75599752D01*
X202971535Y-75604598D01*
X202945607Y-75612131D01*
X202938780Y-75616169D01*
X202938777Y-75616170D01*
X202928094Y-75622488D01*
X202910336Y-75631188D01*
X202898785Y-75635761D01*
X202898779Y-75635765D01*
X202891412Y-75638681D01*
X202885001Y-75643339D01*
X202884999Y-75643340D01*
X202855512Y-75664764D01*
X202845590Y-75671281D01*
X202814232Y-75689826D01*
X202814228Y-75689829D01*
X202807402Y-75693866D01*
X202793018Y-75708250D01*
X202777984Y-75721091D01*
X202761513Y-75733058D01*
X202737081Y-75762592D01*
X202733223Y-75767255D01*
X202725233Y-75776035D01*
X198531017Y-79970250D01*
X198468705Y-80004276D01*
X198409310Y-80002861D01*
X198353409Y-79987882D01*
X198353398Y-79987880D01*
X198348087Y-79986457D01*
X198120000Y-79966502D01*
X197891913Y-79986457D01*
X197886600Y-79987881D01*
X197886598Y-79987881D01*
X197676067Y-80044293D01*
X197676065Y-80044294D01*
X197670757Y-80045716D01*
X197665776Y-80048039D01*
X197665775Y-80048039D01*
X197468238Y-80140151D01*
X197468233Y-80140154D01*
X197463251Y-80142477D01*
X197387100Y-80195799D01*
X197280211Y-80270643D01*
X197280208Y-80270645D01*
X197275700Y-80273802D01*
X197113802Y-80435700D01*
X197110643Y-80440211D01*
X197107108Y-80444424D01*
X197105148Y-80442780D01*
X197057870Y-80480321D01*
X196987227Y-80487402D01*
X196921396Y-80452663D01*
X196080271Y-79611538D01*
X196065153Y-79593264D01*
X196064944Y-79592956D01*
X196064940Y-79592952D01*
X196060485Y-79586396D01*
X196018209Y-79549125D01*
X196012439Y-79543706D01*
X196001094Y-79532361D01*
X195997967Y-79529935D01*
X195988398Y-79522512D01*
X195982304Y-79517470D01*
X195945990Y-79485456D01*
X195945991Y-79485456D01*
X195940043Y-79480213D01*
X195932656Y-79476449D01*
X195912627Y-79463739D01*
X195906067Y-79458650D01*
X195854307Y-79436252D01*
X195847204Y-79432909D01*
X195796979Y-79407318D01*
X195788872Y-79405506D01*
X195766325Y-79398179D01*
X195765984Y-79398031D01*
X195765981Y-79398030D01*
X195758708Y-79394883D01*
X195750882Y-79393643D01*
X195750880Y-79393643D01*
X195703040Y-79386066D01*
X195695274Y-79384585D01*
X195640281Y-79372292D01*
X195632358Y-79372541D01*
X195632357Y-79372541D01*
X195632261Y-79372544D01*
X195631986Y-79372553D01*
X195608318Y-79371063D01*
X195600121Y-79369765D01*
X195592229Y-79370511D01*
X195592226Y-79370511D01*
X195544021Y-79375068D01*
X195536121Y-79375565D01*
X195487717Y-79377086D01*
X195487716Y-79377086D01*
X195479795Y-79377335D01*
X195472185Y-79379546D01*
X195464354Y-79380786D01*
X195464331Y-79380639D01*
X195437199Y-79384500D01*
X194267993Y-79384500D01*
X194199872Y-79364498D01*
X194164780Y-79330771D01*
X194151964Y-79312467D01*
X194056198Y-79175700D01*
X193894300Y-79013802D01*
X193889792Y-79010645D01*
X193889789Y-79010643D01*
X193811611Y-78955902D01*
X193706749Y-78882477D01*
X193701767Y-78880154D01*
X193701762Y-78880151D01*
X193667543Y-78864195D01*
X193614258Y-78817278D01*
X193594797Y-78749001D01*
X193615339Y-78681041D01*
X193667543Y-78635805D01*
X193701762Y-78619849D01*
X193701767Y-78619846D01*
X193706749Y-78617523D01*
X193811611Y-78544098D01*
X193889789Y-78489357D01*
X193889792Y-78489355D01*
X193894300Y-78486198D01*
X194056198Y-78324300D01*
X194097604Y-78265167D01*
X194151181Y-78188650D01*
X194187523Y-78136749D01*
X194189846Y-78131767D01*
X194189849Y-78131762D01*
X194281961Y-77934225D01*
X194281961Y-77934224D01*
X194284284Y-77929243D01*
X194301479Y-77865073D01*
X194342119Y-77713402D01*
X194342119Y-77713400D01*
X194343543Y-77708087D01*
X194363498Y-77480000D01*
X194343543Y-77251913D01*
X194299319Y-77086868D01*
X194285707Y-77036067D01*
X194285706Y-77036065D01*
X194284284Y-77030757D01*
X194281961Y-77025775D01*
X194189849Y-76828238D01*
X194189846Y-76828233D01*
X194187523Y-76823251D01*
X194087443Y-76680322D01*
X194059357Y-76640211D01*
X194059355Y-76640208D01*
X194056198Y-76635700D01*
X193894300Y-76473802D01*
X193889792Y-76470645D01*
X193889789Y-76470643D01*
X193811611Y-76415902D01*
X193706749Y-76342477D01*
X193701767Y-76340154D01*
X193701762Y-76340151D01*
X193667543Y-76324195D01*
X193614258Y-76277278D01*
X193594797Y-76209001D01*
X193615339Y-76141041D01*
X193667543Y-76095805D01*
X193701762Y-76079849D01*
X193701767Y-76079846D01*
X193706749Y-76077523D01*
X193848458Y-75978297D01*
X193889789Y-75949357D01*
X193889792Y-75949355D01*
X193894300Y-75946198D01*
X194056198Y-75784300D01*
X194061986Y-75776035D01*
X194137452Y-75668257D01*
X194187523Y-75596749D01*
X194189846Y-75591767D01*
X194189849Y-75591762D01*
X194281961Y-75394225D01*
X194281961Y-75394224D01*
X194284284Y-75389243D01*
X194332813Y-75208134D01*
X194342119Y-75173402D01*
X194342119Y-75173400D01*
X194343543Y-75168087D01*
X194363498Y-74940000D01*
X194343543Y-74711913D01*
X194299319Y-74546868D01*
X194285707Y-74496067D01*
X194285706Y-74496065D01*
X194284284Y-74490757D01*
X194250425Y-74418145D01*
X194189849Y-74288238D01*
X194189846Y-74288233D01*
X194187523Y-74283251D01*
X194080608Y-74130561D01*
X194059357Y-74100211D01*
X194059355Y-74100208D01*
X194056198Y-74095700D01*
X193894300Y-73933802D01*
X193889792Y-73930645D01*
X193889789Y-73930643D01*
X193789694Y-73860556D01*
X193739229Y-73825220D01*
X193694901Y-73769763D01*
X193685500Y-73722007D01*
X193685500Y-68885422D01*
X193705502Y-68817301D01*
X193722405Y-68796327D01*
X193938732Y-68580000D01*
X196806502Y-68580000D01*
X196826457Y-68808087D01*
X196827881Y-68813400D01*
X196827881Y-68813402D01*
X196833195Y-68833232D01*
X196885716Y-69029243D01*
X196888039Y-69034224D01*
X196888039Y-69034225D01*
X196980151Y-69231762D01*
X196980154Y-69231767D01*
X196982477Y-69236749D01*
X196985634Y-69241257D01*
X197100611Y-69405461D01*
X197113802Y-69424300D01*
X197275700Y-69586198D01*
X197280208Y-69589355D01*
X197280211Y-69589357D01*
X197345992Y-69635417D01*
X197463251Y-69717523D01*
X197468233Y-69719846D01*
X197468238Y-69719849D01*
X197665775Y-69811961D01*
X197670757Y-69814284D01*
X197676065Y-69815706D01*
X197676067Y-69815707D01*
X197886598Y-69872119D01*
X197886600Y-69872119D01*
X197891913Y-69873543D01*
X198120000Y-69893498D01*
X198348087Y-69873543D01*
X198353400Y-69872119D01*
X198353402Y-69872119D01*
X198409312Y-69857138D01*
X198480289Y-69858828D01*
X198531018Y-69889750D01*
X200154745Y-71513477D01*
X200162322Y-71521803D01*
X200166447Y-71528303D01*
X200172225Y-71533729D01*
X200172226Y-71533730D01*
X200216281Y-71575100D01*
X200219110Y-71577842D01*
X200238906Y-71597638D01*
X200242114Y-71600126D01*
X200251143Y-71607837D01*
X200283494Y-71638217D01*
X200290443Y-71642037D01*
X200301329Y-71648022D01*
X200317853Y-71658876D01*
X200333933Y-71671349D01*
X200341210Y-71674498D01*
X200374650Y-71688969D01*
X200385311Y-71694192D01*
X200417247Y-71711749D01*
X200417252Y-71711751D01*
X200424197Y-71715569D01*
X200431871Y-71717539D01*
X200431878Y-71717542D01*
X200443913Y-71720632D01*
X200462618Y-71727036D01*
X200474013Y-71731967D01*
X200481292Y-71735117D01*
X200508342Y-71739401D01*
X200525127Y-71742060D01*
X200536740Y-71744465D01*
X200579718Y-71755500D01*
X200600065Y-71755500D01*
X200619777Y-71757051D01*
X200639879Y-71760235D01*
X200647771Y-71759489D01*
X200684056Y-71756059D01*
X200695914Y-71755500D01*
X205014548Y-71755500D01*
X205082669Y-71775502D01*
X205129162Y-71829158D01*
X205133754Y-71840683D01*
X205154112Y-71900144D01*
X205164955Y-71921703D01*
X205260597Y-72111866D01*
X205277160Y-72144799D01*
X205279586Y-72148328D01*
X205279589Y-72148334D01*
X205346961Y-72246360D01*
X205432274Y-72370490D01*
X205435161Y-72373663D01*
X205435162Y-72373664D01*
X205613692Y-72569867D01*
X205616582Y-72573043D01*
X205619877Y-72575798D01*
X205619878Y-72575799D01*
X205664382Y-72613010D01*
X205826675Y-72748707D01*
X205830316Y-72750991D01*
X206055024Y-72891951D01*
X206055028Y-72891953D01*
X206058664Y-72894234D01*
X206126544Y-72924883D01*
X206304345Y-73005164D01*
X206304349Y-73005166D01*
X206308257Y-73006930D01*
X206312377Y-73008150D01*
X206312376Y-73008150D01*
X206566723Y-73083491D01*
X206566727Y-73083492D01*
X206570836Y-73084709D01*
X206575070Y-73085357D01*
X206575075Y-73085358D01*
X206837298Y-73125483D01*
X206837300Y-73125483D01*
X206841540Y-73126132D01*
X206980912Y-73128322D01*
X207111071Y-73130367D01*
X207111077Y-73130367D01*
X207115362Y-73130434D01*
X207387235Y-73097534D01*
X207652127Y-73028041D01*
X207656087Y-73026401D01*
X207656092Y-73026399D01*
X207862752Y-72940797D01*
X207905136Y-72923241D01*
X208141582Y-72785073D01*
X208357089Y-72616094D01*
X208376947Y-72595603D01*
X208544686Y-72422509D01*
X208547669Y-72419431D01*
X208550202Y-72415983D01*
X208550206Y-72415978D01*
X208707257Y-72202178D01*
X208709795Y-72198723D01*
X208729962Y-72161581D01*
X208838418Y-71961830D01*
X208838419Y-71961828D01*
X208840468Y-71958054D01*
X208893159Y-71818611D01*
X208935751Y-71705895D01*
X208935752Y-71705891D01*
X208937269Y-71701877D01*
X208979563Y-71517210D01*
X208997449Y-71439117D01*
X208997450Y-71439113D01*
X208998407Y-71434933D01*
X209001211Y-71403523D01*
X209022531Y-71164627D01*
X209022531Y-71164625D01*
X209022751Y-71162161D01*
X209023193Y-71120000D01*
X209020594Y-71081869D01*
X209004859Y-70851055D01*
X209004858Y-70851049D01*
X209004567Y-70846778D01*
X208949032Y-70578612D01*
X208857617Y-70320465D01*
X208732013Y-70077112D01*
X208722040Y-70062921D01*
X208602967Y-69893498D01*
X208574545Y-69853057D01*
X208496312Y-69768868D01*
X208391046Y-69655588D01*
X208391043Y-69655585D01*
X208388125Y-69652445D01*
X208384810Y-69649731D01*
X208384806Y-69649728D01*
X208179523Y-69481706D01*
X208176205Y-69478990D01*
X207942704Y-69335901D01*
X207938768Y-69334173D01*
X207695873Y-69227549D01*
X207695869Y-69227548D01*
X207691945Y-69225825D01*
X207428566Y-69150800D01*
X207424324Y-69150196D01*
X207424318Y-69150195D01*
X207201540Y-69118489D01*
X207157443Y-69112213D01*
X207013589Y-69111460D01*
X206887877Y-69110802D01*
X206887871Y-69110802D01*
X206883591Y-69110780D01*
X206879347Y-69111339D01*
X206879343Y-69111339D01*
X206760302Y-69127011D01*
X206612078Y-69146525D01*
X206607938Y-69147658D01*
X206607936Y-69147658D01*
X206535008Y-69167609D01*
X206347928Y-69218788D01*
X206343980Y-69220472D01*
X206099982Y-69324546D01*
X206099978Y-69324548D01*
X206096030Y-69326232D01*
X206076125Y-69338145D01*
X205864725Y-69464664D01*
X205864721Y-69464667D01*
X205861043Y-69466868D01*
X205647318Y-69638094D01*
X205562539Y-69727432D01*
X205524958Y-69767035D01*
X205458808Y-69836742D01*
X205299002Y-70059136D01*
X205170857Y-70301161D01*
X205169385Y-70305184D01*
X205169383Y-70305188D01*
X205134028Y-70401801D01*
X205091834Y-70458899D01*
X205025468Y-70484121D01*
X205015702Y-70484500D01*
X200975423Y-70484500D01*
X200907302Y-70464498D01*
X200886328Y-70447595D01*
X199429750Y-68991017D01*
X199395724Y-68928705D01*
X199397139Y-68869310D01*
X199412118Y-68813409D01*
X199412120Y-68813398D01*
X199413543Y-68808087D01*
X199433498Y-68580000D01*
X199413543Y-68351913D01*
X199398377Y-68295314D01*
X199355707Y-68136067D01*
X199355706Y-68136065D01*
X199354284Y-68130757D01*
X199328959Y-68076447D01*
X199259849Y-67928238D01*
X199259846Y-67928233D01*
X199257523Y-67923251D01*
X199126198Y-67735700D01*
X198964300Y-67573802D01*
X198959792Y-67570645D01*
X198959789Y-67570643D01*
X198881611Y-67515902D01*
X198776749Y-67442477D01*
X198771767Y-67440154D01*
X198771762Y-67440151D01*
X198574225Y-67348039D01*
X198574224Y-67348039D01*
X198569243Y-67345716D01*
X198563935Y-67344294D01*
X198563933Y-67344293D01*
X198353402Y-67287881D01*
X198353400Y-67287881D01*
X198348087Y-67286457D01*
X198120000Y-67266502D01*
X197891913Y-67286457D01*
X197886600Y-67287881D01*
X197886598Y-67287881D01*
X197676067Y-67344293D01*
X197676065Y-67344294D01*
X197670757Y-67345716D01*
X197665776Y-67348039D01*
X197665775Y-67348039D01*
X197468238Y-67440151D01*
X197468233Y-67440154D01*
X197463251Y-67442477D01*
X197358389Y-67515902D01*
X197280211Y-67570643D01*
X197280208Y-67570645D01*
X197275700Y-67573802D01*
X197113802Y-67735700D01*
X196982477Y-67923251D01*
X196980154Y-67928233D01*
X196980151Y-67928238D01*
X196911041Y-68076447D01*
X196885716Y-68130757D01*
X196884294Y-68136065D01*
X196884293Y-68136067D01*
X196841623Y-68295314D01*
X196826457Y-68351913D01*
X196806502Y-68580000D01*
X193938732Y-68580000D01*
X195806327Y-66712405D01*
X195868639Y-66678379D01*
X195895422Y-66675500D01*
X204875500Y-66675500D01*
X204943621Y-66695502D01*
X204990114Y-66749158D01*
X205001500Y-66801500D01*
X205001500Y-67588134D01*
X205008255Y-67650316D01*
X205059385Y-67786705D01*
X205146739Y-67903261D01*
X205263295Y-67990615D01*
X205399684Y-68041745D01*
X205461866Y-68048500D01*
X208558134Y-68048500D01*
X208620316Y-68041745D01*
X208756705Y-67990615D01*
X208873261Y-67903261D01*
X208960615Y-67786705D01*
X209011745Y-67650316D01*
X209018500Y-67588134D01*
X209018500Y-64491866D01*
X209011745Y-64429684D01*
X208960615Y-64293295D01*
X208873261Y-64176739D01*
X208756705Y-64089385D01*
X208620316Y-64038255D01*
X208558134Y-64031500D01*
X205461866Y-64031500D01*
X205399684Y-64038255D01*
X205263295Y-64089385D01*
X205146739Y-64176739D01*
X205059385Y-64293295D01*
X205008255Y-64429684D01*
X205001500Y-64491866D01*
X205001500Y-65278500D01*
X204981498Y-65346621D01*
X204927842Y-65393114D01*
X204875500Y-65404500D01*
X195659020Y-65404500D01*
X195647791Y-65403971D01*
X195640281Y-65402292D01*
X195632355Y-65402541D01*
X195632354Y-65402541D01*
X195572002Y-65404438D01*
X195568044Y-65404500D01*
X192085423Y-65404500D01*
X192017302Y-65384498D01*
X191996328Y-65367595D01*
X191845405Y-65216672D01*
X191811379Y-65154360D01*
X191808500Y-65127577D01*
X191808500Y-63921866D01*
X191801745Y-63859684D01*
X191750615Y-63723295D01*
X191663261Y-63606739D01*
X191546705Y-63519385D01*
X191410316Y-63468255D01*
X191348134Y-63461500D01*
X189651866Y-63461500D01*
X189589684Y-63468255D01*
X189453295Y-63519385D01*
X189336739Y-63606739D01*
X189249385Y-63723295D01*
X189198255Y-63859684D01*
X189191500Y-63921866D01*
X189191500Y-65618134D01*
X152908500Y-65618134D01*
X152908500Y-64398134D01*
X173901500Y-64398134D01*
X173908255Y-64460316D01*
X173959385Y-64596705D01*
X174046739Y-64713261D01*
X174163295Y-64800615D01*
X174299684Y-64851745D01*
X174361866Y-64858500D01*
X176158134Y-64858500D01*
X176220316Y-64851745D01*
X176356705Y-64800615D01*
X176473261Y-64713261D01*
X176560615Y-64596705D01*
X176582799Y-64537529D01*
X176604598Y-64479382D01*
X176647240Y-64422618D01*
X176713802Y-64397918D01*
X176783150Y-64413126D01*
X176817817Y-64441114D01*
X176846250Y-64473938D01*
X177018126Y-64616632D01*
X177211000Y-64729338D01*
X177419692Y-64809030D01*
X177424760Y-64810061D01*
X177424763Y-64810062D01*
X177532017Y-64831883D01*
X177638597Y-64853567D01*
X177643772Y-64853757D01*
X177643774Y-64853757D01*
X177856673Y-64861564D01*
X177856677Y-64861564D01*
X177861837Y-64861753D01*
X177866957Y-64861097D01*
X177866959Y-64861097D01*
X178078288Y-64834025D01*
X178078289Y-64834025D01*
X178083416Y-64833368D01*
X178088366Y-64831883D01*
X178292429Y-64770661D01*
X178292434Y-64770659D01*
X178297384Y-64769174D01*
X178497994Y-64670896D01*
X178679860Y-64541173D01*
X178732749Y-64488469D01*
X178823616Y-64397918D01*
X178838096Y-64383489D01*
X178968453Y-64202077D01*
X178969776Y-64203028D01*
X179016645Y-64159857D01*
X179086580Y-64147625D01*
X179152026Y-64175144D01*
X179179875Y-64206994D01*
X179239987Y-64305088D01*
X179386250Y-64473938D01*
X179558126Y-64616632D01*
X179751000Y-64729338D01*
X179959692Y-64809030D01*
X179964760Y-64810061D01*
X179964763Y-64810062D01*
X180072017Y-64831883D01*
X180178597Y-64853567D01*
X180183772Y-64853757D01*
X180183774Y-64853757D01*
X180396673Y-64861564D01*
X180396677Y-64861564D01*
X180401837Y-64861753D01*
X180406957Y-64861097D01*
X180406959Y-64861097D01*
X180618288Y-64834025D01*
X180618289Y-64834025D01*
X180623416Y-64833368D01*
X180628366Y-64831883D01*
X180832429Y-64770661D01*
X180832434Y-64770659D01*
X180837384Y-64769174D01*
X181037994Y-64670896D01*
X181219860Y-64541173D01*
X181272749Y-64488469D01*
X181363616Y-64397918D01*
X181378096Y-64383489D01*
X181508453Y-64202077D01*
X181529320Y-64159857D01*
X181605136Y-64006453D01*
X181605137Y-64006451D01*
X181607430Y-64001811D01*
X181672370Y-63788069D01*
X181701529Y-63566590D01*
X181702551Y-63524771D01*
X181703074Y-63503365D01*
X181703074Y-63503361D01*
X181703156Y-63500000D01*
X181684852Y-63277361D01*
X181630431Y-63060702D01*
X181541354Y-62855840D01*
X181420014Y-62668277D01*
X181269670Y-62503051D01*
X181265619Y-62499852D01*
X181265615Y-62499848D01*
X181098414Y-62367800D01*
X181098410Y-62367798D01*
X181094359Y-62364598D01*
X180898789Y-62256638D01*
X180893920Y-62254914D01*
X180893916Y-62254912D01*
X180693087Y-62183795D01*
X180693083Y-62183794D01*
X180688212Y-62182069D01*
X180683119Y-62181162D01*
X180683116Y-62181161D01*
X180473373Y-62143800D01*
X180473367Y-62143799D01*
X180468284Y-62142894D01*
X180394452Y-62141992D01*
X180250081Y-62140228D01*
X180250079Y-62140228D01*
X180244911Y-62140165D01*
X180024091Y-62173955D01*
X179811756Y-62243357D01*
X179613607Y-62346507D01*
X179609474Y-62349610D01*
X179609471Y-62349612D01*
X179439100Y-62477530D01*
X179434965Y-62480635D01*
X179431393Y-62484373D01*
X179323729Y-62597037D01*
X179280629Y-62642138D01*
X179173201Y-62799621D01*
X179118293Y-62844621D01*
X179047768Y-62852792D01*
X178984021Y-62821538D01*
X178963324Y-62797054D01*
X178882822Y-62672617D01*
X178882820Y-62672614D01*
X178880014Y-62668277D01*
X178729670Y-62503051D01*
X178725619Y-62499852D01*
X178725615Y-62499848D01*
X178558414Y-62367800D01*
X178558410Y-62367798D01*
X178554359Y-62364598D01*
X178358789Y-62256638D01*
X178353920Y-62254914D01*
X178353916Y-62254912D01*
X178153087Y-62183795D01*
X178153083Y-62183794D01*
X178148212Y-62182069D01*
X178143119Y-62181162D01*
X178143116Y-62181161D01*
X177933373Y-62143800D01*
X177933367Y-62143799D01*
X177928284Y-62142894D01*
X177854452Y-62141992D01*
X177710081Y-62140228D01*
X177710079Y-62140228D01*
X177704911Y-62140165D01*
X177484091Y-62173955D01*
X177271756Y-62243357D01*
X177073607Y-62346507D01*
X177069474Y-62349610D01*
X177069471Y-62349612D01*
X176899100Y-62477530D01*
X176894965Y-62480635D01*
X176838537Y-62539684D01*
X176814283Y-62565064D01*
X176752759Y-62600494D01*
X176681846Y-62597037D01*
X176624060Y-62555791D01*
X176605207Y-62522243D01*
X176563767Y-62411703D01*
X176560615Y-62403295D01*
X176473261Y-62286739D01*
X176356705Y-62199385D01*
X176220316Y-62148255D01*
X176158134Y-62141500D01*
X174361866Y-62141500D01*
X174299684Y-62148255D01*
X174163295Y-62199385D01*
X174046739Y-62286739D01*
X173959385Y-62403295D01*
X173908255Y-62539684D01*
X173901500Y-62601866D01*
X173901500Y-64398134D01*
X152908500Y-64398134D01*
X152908500Y-61594500D01*
X152928502Y-61526379D01*
X152982158Y-61479886D01*
X153034500Y-61468500D01*
X212725500Y-61468500D01*
X212793621Y-61488502D01*
G37*
%TD.AperFunction*%
%TD*%
M02*
